<svg xmlns="http://www.w3.org/2000/svg" width="47.82" height="44" viewBox="0 0 47.82 44"><defs><style>.a{fill:#0984e3;}</style></defs><path class="a" d="M43.132,64.59h-.546v2.722a1.4,1.4,0,1,1-2.8,0V64.59H35.676v2.722a1.4,1.4,0,1,1-2.8,0V64.59H28.767v2.722a1.4,1.4,0,1,1-2.8,0V64.59h-4.11v2.722a1.4,1.4,0,1,1-2.8,0V64.59H14.946v2.722a1.4,1.4,0,1,1-2.8,0V64.59H8.036v2.722a1.4,1.4,0,1,1-2.8,0V64.59H4.687A4.692,4.692,0,0,0,0,69.278v2.784H47.82V69.278A4.693,4.693,0,0,0,43.132,64.59Z" transform="translate(0 -60.467)"/><path class="a" d="M183.7,264.969v4.508h2.79v-4.508a1.4,1.4,0,0,1,1.4-1.4H192.4v-2.789h-4.507a1.4,1.4,0,0,1-1.4-1.4V254.87H183.7v4.508a1.4,1.4,0,0,1-1.4,1.4H177.79v2.789H182.3A1.4,1.4,0,0,1,183.7,264.969Z" transform="translate(-161.185 -232.976)"/><path class="a" d="M0,199.506a4.692,4.692,0,0,0,4.687,4.688H43.132a4.693,4.693,0,0,0,4.688-4.688V174.59H0ZM13.8,186.6a1.4,1.4,0,0,1,1.4-1.4h4.509v-4.508a1.4,1.4,0,0,1,1.4-1.4h5.592a1.4,1.4,0,0,1,1.4,1.4V185.2h4.507a1.4,1.4,0,0,1,1.4,1.4v5.591a1.4,1.4,0,0,1-1.4,1.4H28.107V198.1a1.4,1.4,0,0,1-1.4,1.4H21.115a1.4,1.4,0,0,1-1.4-1.4v-4.508H15.2a1.4,1.4,0,0,1-1.4-1.4Z" transform="translate(0 -160.194)"/><path class="a" d="M206.8,21.851a1.4,1.4,0,0,0-2.8,0v2.722h2.8Z" transform="translate(-184.947 -20.45)"/><path class="a" d="M132.822,21.851a1.4,1.4,0,1,0-2.8,0v2.722h2.8Z" transform="translate(-117.876 -20.45)"/><path class="a" d="M58.842,21.851a1.4,1.4,0,1,0-2.8,0v2.722h2.8Z" transform="translate(-50.806 -20.45)"/><path class="a" d="M428.762,21.851a1.4,1.4,0,0,0-2.8,0v2.722h2.8Z" transform="translate(-386.176 -20.45)"/><path class="a" d="M354.782,21.851a1.4,1.4,0,1,0-2.8,0v2.722h2.8Z" transform="translate(-319.106 -20.45)"/><path class="a" d="M280.8,21.851a1.4,1.4,0,0,0-2.8,0v2.722h2.8Z" transform="translate(-252.035 -20.45)"/></svg>