<svg xmlns="http://www.w3.org/2000/svg" width="17.744" height="13.115" viewBox="0 0 17.744 13.115"><defs><style>.a{fill:#3299e7;}</style></defs><g transform="translate(0 -64)"><g transform="translate(2.314 66.314)"><path class="a" d="M64.386,136.486A.386.386,0,0,1,64,136.1v-7.715a.386.386,0,1,1,.771,0V136.1A.386.386,0,0,1,64.386,136.486Z" transform="translate(-64 -128)"/><path class="a" d="M107.052,134.943a.386.386,0,0,1-.386-.386v-6.172a.386.386,0,0,1,.772,0v6.172A.386.386,0,0,1,107.052,134.943Z" transform="translate(-105.123 -128)"/><path class="a" d="M149.719,134.943a.386.386,0,0,1-.386-.386v-6.172a.386.386,0,0,1,.772,0v6.172A.386.386,0,0,1,149.719,134.943Z" transform="translate(-146.247 -128)"/><path class="a" d="M192.386,134.943a.386.386,0,0,1-.386-.386v-6.172a.386.386,0,1,1,.772,0v6.172A.386.386,0,0,1,192.386,134.943Z" transform="translate(-187.371 -128)"/><path class="a" d="M235.052,136.486a.386.386,0,0,1-.386-.386v-7.715a.386.386,0,1,1,.771,0V136.1A.386.386,0,0,1,235.052,136.486Z" transform="translate(-228.494 -128)"/><path class="a" d="M277.719,134.943a.386.386,0,0,1-.386-.386v-6.172a.386.386,0,1,1,.772,0v6.172A.386.386,0,0,1,277.719,134.943Z" transform="translate(-269.618 -128)"/><path class="a" d="M320.386,134.943a.386.386,0,0,1-.386-.386v-6.172a.386.386,0,1,1,.771,0v6.172A.386.386,0,0,1,320.386,134.943Z" transform="translate(-310.742 -128)"/><path class="a" d="M363.052,134.943a.386.386,0,0,1-.386-.386v-6.172a.386.386,0,1,1,.772,0v6.172A.386.386,0,0,1,363.052,134.943Z" transform="translate(-351.865 -128)"/><path class="a" d="M405.719,136.486a.386.386,0,0,1-.386-.386v-7.715a.386.386,0,1,1,.771,0V136.1A.386.386,0,0,1,405.719,136.486Z" transform="translate(-392.989 -128)"/><path class="a" d="M107.049,342.162a.314.314,0,0,1-.147-.031.273.273,0,0,1-.123-.085.373.373,0,0,1-.013-.527l.013-.013a.273.273,0,0,1,.123-.085.381.381,0,0,1,.417.085.386.386,0,0,1-.27.656Z" transform="translate(-105.121 -333.675)"/><path class="a" d="M149.716,342.147a.313.313,0,0,1-.147-.031.273.273,0,0,1-.123-.085.373.373,0,0,1-.013-.527l.013-.013a.273.273,0,0,1,.123-.085.378.378,0,0,1,.417.085.273.273,0,0,1,.085.123.364.364,0,0,1,0,.293.27.27,0,0,1-.085.123A.361.361,0,0,1,149.716,342.147Z" transform="translate(-146.245 -333.66)"/><path class="a" d="M192.383,342.147a.313.313,0,0,1-.147-.031.273.273,0,0,1-.123-.085.373.373,0,0,1-.013-.527l.013-.013a.273.273,0,0,1,.123-.085.378.378,0,0,1,.417.085.273.273,0,0,1,.085.123.363.363,0,0,1,0,.293.27.27,0,0,1-.085.123A.361.361,0,0,1,192.383,342.147Z" transform="translate(-187.369 -333.66)"/><path class="a" d="M277.863,342.251a.383.383,0,1,1,.27-.656.274.274,0,0,1,.085.123.363.363,0,0,1,0,.293.27.27,0,0,1-.085.123A.361.361,0,0,1,277.863,342.251Z" transform="translate(-269.763 -333.765)"/><path class="a" d="M320.53,342.251a.386.386,0,1,1,.265-.11A.386.386,0,0,1,320.53,342.251Z" transform="translate(-310.887 -333.764)"/><path class="a" d="M363.051,342.251a.361.361,0,0,1-.27-.116.269.269,0,0,1-.085-.123.363.363,0,0,1,0-.293.272.272,0,0,1,.085-.123.382.382,0,1,1,.27.656Z" transform="translate(-351.865 -333.764)"/></g><g transform="translate(0 64)"><path class="a" d="M.386,67.086A.386.386,0,0,1,0,66.7V64.386A.386.386,0,0,1,.386,64H2.7a.386.386,0,1,1,0,.771H.771V66.7A.386.386,0,0,1,.386,67.086Z" transform="translate(0 -64)"/><path class="a" d="M2.7,344.419H.386A.386.386,0,0,1,0,344.033v-2.314a.386.386,0,1,1,.771,0v1.929H2.7a.386.386,0,0,1,0,.772Z" transform="translate(0 -331.304)"/><path class="a" d="M408.033,67.086a.386.386,0,0,1-.386-.386V64.771h-1.929a.386.386,0,1,1,0-.771h2.314a.386.386,0,0,1,.386.386V66.7A.386.386,0,0,1,408.033,67.086Z" transform="translate(-390.675 -64)"/><path class="a" d="M408.033,344.419h-2.314a.386.386,0,0,1,0-.772h1.929v-1.929a.386.386,0,0,1,.771,0v2.314A.386.386,0,0,1,408.033,344.419Z" transform="translate(-390.675 -331.304)"/></g><path class="a" d="M64.386,136.486A.386.386,0,0,1,64,136.1v-7.715a.386.386,0,1,1,.771,0V136.1A.386.386,0,0,1,64.386,136.486Z" transform="translate(-61.686 -61.686)"/><path class="a" d="M107.052,134.943a.386.386,0,0,1-.386-.386v-6.172a.386.386,0,0,1,.772,0v6.172A.386.386,0,0,1,107.052,134.943Z" transform="translate(-102.809 -61.686)"/><path class="a" d="M149.719,134.943a.386.386,0,0,1-.386-.386v-6.172a.386.386,0,0,1,.772,0v6.172A.386.386,0,0,1,149.719,134.943Z" transform="translate(-143.933 -61.686)"/><path class="a" d="M192.386,134.943a.386.386,0,0,1-.386-.386v-6.172a.386.386,0,1,1,.772,0v6.172A.386.386,0,0,1,192.386,134.943Z" transform="translate(-185.057 -61.686)"/><path class="a" d="M235.052,136.486a.386.386,0,0,1-.386-.386v-7.715a.386.386,0,1,1,.771,0V136.1A.386.386,0,0,1,235.052,136.486Z" transform="translate(-226.18 -61.686)"/><path class="a" d="M277.719,134.943a.386.386,0,0,1-.386-.386v-6.172a.386.386,0,1,1,.772,0v6.172A.386.386,0,0,1,277.719,134.943Z" transform="translate(-267.304 -61.686)"/><path class="a" d="M320.386,134.943a.386.386,0,0,1-.386-.386v-6.172a.386.386,0,1,1,.771,0v6.172A.386.386,0,0,1,320.386,134.943Z" transform="translate(-308.428 -61.686)"/><path class="a" d="M363.052,134.943a.386.386,0,0,1-.386-.386v-6.172a.386.386,0,1,1,.772,0v6.172A.386.386,0,0,1,363.052,134.943Z" transform="translate(-349.551 -61.686)"/><path class="a" d="M405.719,136.486a.386.386,0,0,1-.386-.386v-7.715a.386.386,0,1,1,.771,0V136.1A.386.386,0,0,1,405.719,136.486Z" transform="translate(-390.675 -61.686)"/><path class="a" d="M107.059,342.156a.317.317,0,0,1-.147-.031.275.275,0,0,1-.123-.085.373.373,0,0,1-.012-.528l.012-.012a.275.275,0,0,1,.123-.085.385.385,0,0,1,.293,0,.271.271,0,0,1,.123.085.386.386,0,0,1-.27.656Z" transform="translate(-102.815 -267.356)"/><path class="a" d="M149.843,342.138a.386.386,0,0,1-.271-.656.377.377,0,0,1,.417-.085.27.27,0,0,1,.123.085.386.386,0,0,1-.269.656Z" transform="translate(-144.057 -267.337)"/><path class="a" d="M192.51,342.161a.386.386,0,0,1-.271-.656.275.275,0,0,1,.123-.085.381.381,0,0,1,.417.085.386.386,0,0,1-.27.656h0Z" transform="translate(-185.181 -267.36)"/><path class="a" d="M277.726,342.156a.338.338,0,0,1-.147-.031.275.275,0,0,1-.123-.085.373.373,0,0,1-.012-.528l.012-.012a.275.275,0,0,1,.123-.085.385.385,0,0,1,.293,0,.271.271,0,0,1,.123.085.386.386,0,0,1-.27.656Z" transform="translate(-267.311 -267.356)"/><path class="a" d="M320.393,342.251a.338.338,0,0,1-.147-.031.276.276,0,0,1-.123-.085.373.373,0,0,1-.012-.528l.012-.012a.386.386,0,0,1,.54,0,.372.372,0,0,1,.014.526l-.014.014a.272.272,0,0,1-.123.085A.335.335,0,0,1,320.393,342.251Z" transform="translate(-308.435 -267.45)"/><path class="a" d="M363.047,342.162a.337.337,0,0,1-.147-.031.275.275,0,0,1-.123-.085.362.362,0,0,1-.116-.27.308.308,0,0,1,.031-.147.271.271,0,0,1,.084-.123.274.274,0,0,1,.123-.085.381.381,0,0,1,.417.085.28.28,0,0,1,.085.123.309.309,0,0,1,.031.147.4.4,0,0,1-.386.386Z" transform="translate(-349.546 -267.361)"/><path class="a" d="M.386,67.086A.386.386,0,0,1,0,66.7V64.386A.386.386,0,0,1,.386,64H2.7a.386.386,0,1,1,0,.771H.771V66.7A.386.386,0,0,1,.386,67.086Z"/><path class="a" d="M2.7,344.419H.386A.386.386,0,0,1,0,344.033v-2.314a.386.386,0,1,1,.771,0v1.929H2.7a.386.386,0,0,1,0,.772Z" transform="translate(0 -267.304)"/><path class="a" d="M408.033,67.086a.386.386,0,0,1-.386-.386V64.771h-1.929a.386.386,0,1,1,0-.771h2.314a.386.386,0,0,1,.386.386V66.7A.386.386,0,0,1,408.033,67.086Z" transform="translate(-390.675)"/><path class="a" d="M408.033,344.419h-2.314a.386.386,0,0,1,0-.772h1.929v-1.929a.386.386,0,0,1,.771,0v2.314A.386.386,0,0,1,408.033,344.419Z" transform="translate(-390.675 -267.304)"/></g></svg>