<svg xmlns="http://www.w3.org/2000/svg" width="79.761" height="57.616" viewBox="0 0 79.761 57.616"><defs><style>.a{fill:#0984e3;}.b,.c,.e{fill:none;}.b,.c{stroke:#0984e3;stroke-width:4px;}.c{stroke-linecap:round;}.d{stroke:none;}</style></defs><g transform="translate(-417.9 -342.619)"><g transform="translate(417.9 342.619)"><path class="a" d="M46.376,42.955c6.119,0,11.1-6.766,11.1-15.082S52.5,12.791,46.376,12.791s-11.1,6.766-11.1,15.082S40.257,42.955,46.376,42.955ZM37.592,26.8c2.493.034,9.56-.312,12.7-5.093,0,0,1.812,3.066,4.731,3.677a18.385,18.385,0,0,1,.17,2.488c0,7.061-3.957,12.805-8.821,12.805s-8.821-5.744-8.821-12.805C37.555,27.512,37.571,27.156,37.592,26.8Z" transform="translate(-23.638 -12.791)"/><path class="a" d="M50.011,56.125H48.245a1.159,1.159,0,0,0-.882.407l-.551.647a1.158,1.158,0,0,0-.093,1.376l.613.958a1.159,1.159,0,0,0,.975.533h1.641a1.158,1.158,0,0,0,.975-.533l.613-.958a1.159,1.159,0,0,0-.093-1.376l-.552-.647A1.158,1.158,0,0,0,50.011,56.125Z" transform="translate(-26.353 -23.242)"/><path class="a" d="M60,55.6h0L54.658,79.586H73.935C73.936,68.348,68.046,58.773,60,55.6Z" transform="translate(-28.311 -23.115)"/><path class="a" d="M33.83,55.62C25.8,58.81,19.938,68.369,19.938,79.585h19.13L33.879,55.6Z" transform="translate(-19.938 -23.115)"/><path class="a" d="M49.46,63.542H48.051a1.091,1.091,0,0,0-1.085.975L45.147,81.5h7.217L50.545,64.517A1.091,1.091,0,0,0,49.46,63.542Z" transform="translate(-26.018 -25.03)"/></g><g transform="translate(454.791 344.245)"><g class="b" transform="translate(0 0)"><ellipse class="d" cx="19.678" cy="19.678" rx="19.678" ry="19.678"/><ellipse class="e" cx="19.678" cy="19.678" rx="17.678" ry="17.678"/></g><path class="c" d="M16015,3002l11.139,16.832" transform="translate(-15986.04 -2965.614)"/></g></g></svg>