<svg xmlns="http://www.w3.org/2000/svg" width="54.019" height="75.09" viewBox="0 0 54.019 75.09"><defs><style>.a{fill:#0984e3;}.b{fill:#fff;}</style></defs><g transform="translate(-289 -330)"><g transform="translate(304.442 329.814)"><ellipse class="a" cx="11" cy="10.5" rx="11" ry="10.5" transform="translate(-0.423 0.186)"/><path class="b" d="M34.97,12.691h-3.5v-3.5a2.189,2.189,0,1,0-4.377,0v3.5h-3.5A2.068,2.068,0,0,0,21.4,14.879a2.068,2.068,0,0,0,2.189,2.189h3.5v3.5a2.189,2.189,0,1,0,4.377,0v-3.5h3.5a2.068,2.068,0,0,0,2.189-2.189A2.068,2.068,0,0,0,34.97,12.691Z" transform="translate(-18.665 -4.376)"/></g><g transform="translate(289 353.913)"><path class="a" d="M49.639,9.6H46.682v4.89a2.779,2.779,0,0,1-2.729,2.786H41.166A2.791,2.791,0,0,1,38.38,14.49V9.6h-17.8v4.89a2.779,2.779,0,0,1-2.729,2.786H15.067A2.791,2.791,0,0,1,12.28,14.49V9.6H9.38A6.9,6.9,0,0,0,2.5,16.48v34.8a6.868,6.868,0,0,0,6.88,6.88H49.639a6.868,6.868,0,0,0,6.88-6.88V16.48A6.9,6.9,0,0,0,49.639,9.6Zm2.616,41.68A2.646,2.646,0,0,1,49.639,53.9H9.38A2.646,2.646,0,0,1,6.765,51.28V24.669h45.49Z" transform="translate(-2.5 -6.984)"/><path class="a" d="M20.663,52.106h5.174A1.772,1.772,0,0,0,27.6,50.343v-3.98A1.772,1.772,0,0,0,25.837,44.6H20.663A1.772,1.772,0,0,0,18.9,46.363v3.98A1.772,1.772,0,0,0,20.663,52.106Z" transform="translate(-9.574 -22.083)"/><path class="a" d="M67.563,52.106h5.174A1.772,1.772,0,0,0,74.5,50.343v-3.98A1.772,1.772,0,0,0,72.737,44.6H67.563A1.772,1.772,0,0,0,65.8,46.363v3.98A1.772,1.772,0,0,0,67.563,52.106Z" transform="translate(-29.807 -22.083)"/><path class="a" d="M44.063,52.106h5.174A1.772,1.772,0,0,0,51,50.343v-3.98A1.772,1.772,0,0,0,49.237,44.6H44.063A1.772,1.772,0,0,0,42.3,46.363v3.98A1.81,1.81,0,0,0,44.063,52.106Z" transform="translate(-19.668 -22.083)"/><path class="a" d="M20.663,73.506h5.174A1.772,1.772,0,0,0,27.6,71.743v-3.98A1.772,1.772,0,0,0,25.837,66H20.663A1.772,1.772,0,0,0,18.9,67.763v3.98A1.736,1.736,0,0,0,20.663,73.506Z" transform="translate(-9.574 -31.314)"/><path class="a" d="M67.563,73.506h5.174A1.772,1.772,0,0,0,74.5,71.743v-3.98A1.772,1.772,0,0,0,72.737,66H67.563A1.772,1.772,0,0,0,65.8,67.763v3.98A1.736,1.736,0,0,0,67.563,73.506Z" transform="translate(-29.807 -31.314)"/><path class="a" d="M44.063,73.506h5.174A1.772,1.772,0,0,0,51,71.743v-3.98A1.772,1.772,0,0,0,49.237,66H44.063A1.772,1.772,0,0,0,42.3,67.763v3.98A1.771,1.771,0,0,0,44.063,73.506Z" transform="translate(-19.668 -31.314)"/><path class="a" d="M23.863,13.529h2.786a.958.958,0,0,0,.967-.967v-6.6A.958.958,0,0,0,26.649,5H23.863a.958.958,0,0,0-.967.967v6.539A.94.94,0,0,0,23.863,13.529Z" transform="translate(-11.297 -5)"/><path class="a" d="M69.767,13.529h2.786a.958.958,0,0,0,.967-.967v-6.6A.958.958,0,0,0,72.553,5H69.767a.958.958,0,0,0-.967.967v6.539A1.009,1.009,0,0,0,69.767,13.529Z" transform="translate(-31.1 -5)"/></g></g></svg>