<svg xmlns="http://www.w3.org/2000/svg" width="89.087" height="98.223" viewBox="0 0 89.087 98.223">
  <g id="Group_38566" data-name="Group 38566" transform="translate(-178 -2197)">
    <g id="Group_38563" data-name="Group 38563" transform="translate(293)">
      <path id="Path_3311" data-name="Path 3311" d="M236.444,1470.558a3.224,3.224,0,0,0-2.518-1.48,4.054,4.054,0,0,0-2.154.6v-1.742a1.025,1.025,0,0,0,0-.121v-11.556a36.8,36.8,0,0,0-36.762-36.762h-3.593a36.8,36.8,0,0,0-36.762,36.762v13.407a4.03,4.03,0,0,0-2.135-.582,3.224,3.224,0,0,0-2.518,1.48c-1.443,2.011-2.067,9.441.031,15.585,1.42,4.159,3.859,6.9,7.059,7.968a36.822,36.822,0,0,0,34.325,23.6h3.593a36.821,36.821,0,0,0,34.323-23.6c3.211-1.059,5.658-3.807,7.082-7.975C238.511,1480,237.888,1472.57,236.444,1470.558Zm-7.952,18.762-4.05,2.9v-18.732l5.264,2.2v5.262a34.658,34.658,0,0,1-.994,8.25A1.031,1.031,0,0,0,228.492,1489.321Zm-6.115-16.192v21.263a3.347,3.347,0,0,1-2.535,3.3L194.1,1503.38a2.981,2.981,0,0,1-1.289,0l-26.217-5.7a3.345,3.345,0,0,1-2.545-3.305v-21.251a3.327,3.327,0,0,1,2.612-3.319l25.98-5.035a3.007,3.007,0,0,1,1.146,0l25.981,5.035a3.229,3.229,0,0,1,2.369,2.032,1.034,1.034,0,0,0,.165.555A3.589,3.589,0,0,1,222.378,1473.128ZM157.7,1489.171a34.647,34.647,0,0,1-.986-8.218v-5.3l5.264-2.2v18.875Zm8.1-42.085h54.3c-.384,1.762-.9,4.462-.693,5.523.244,1.277,6.46,10.19,10.289,15.592v3.68c0,.012,0,.024,0,.036v1.536l-5.651-2.361a5.3,5.3,0,0,0-3.9-3.31l-25.981-5.035a5.037,5.037,0,0,0-1.931,0l-25.981,5.035a5.293,5.293,0,0,0-3.881,3.269l-5.667,2.369v-1.382a1.025,1.025,0,0,0,0-.4v-1.971a1.032,1.032,0,0,0,.18-.208c.877-1.344,8.588-13.215,9.367-16.285C166.719,1451.389,166.207,1448.7,165.807,1447.086Zm25.608-25.529h3.593a34.737,34.737,0,0,1,34.7,34.7v8.364c-4.034-5.75-7.9-11.473-8.267-12.432a29.546,29.546,0,0,1,.97-5.893,1.033,1.033,0,0,0-1-1.272H164.452a1.033,1.033,0,0,0-.986,1.339c.367,1.181,1.226,4.617.8,6.311-.484,1.907-4.751,8.862-7.546,13.256v-9.673A34.737,34.737,0,0,1,191.415,1421.557Zm-39.43,63.919c-1.858-5.44-1.3-12.336-.308-13.714a1.189,1.189,0,0,1,.93-.621,3.335,3.335,0,0,1,2.046,1.088v8.724a36.652,36.652,0,0,0,1.519,10.463A10.79,10.79,0,0,1,151.985,1485.476Zm43.024,30.175h-3.593a34.756,34.756,0,0,1-32.733-23.189l3.328,2.46a5.4,5.4,0,0,0,4.143,4.781l26.217,5.7a5.038,5.038,0,0,0,2.173,0l25.744-5.686a5.409,5.409,0,0,0,4.138-4.936l3.346-2.4A34.756,34.756,0,0,1,195.009,1515.651Zm39.451-30.175a10.771,10.771,0,0,1-4.212,5.955,36.644,36.644,0,0,0,1.524-10.478v-8.7a3.564,3.564,0,0,1,2.014-1.11h.052a1.189,1.189,0,0,1,.93.621C235.756,1473.14,236.317,1480.036,234.459,1485.476Z" transform="translate(-263.678 777.508)" fill="#354463"/>
      <path id="Path_3584" data-name="Path 3584" d="M11.017,75.324A23.868,23.868,0,0,1,8.855,65.9c0-1.9-.792-2.463-.355-9.838s0-5.375,0-5.375,7.875-8.812,8.063-8.875S35.687,38.063,35.875,38s21.563-.625,21.563-.625A38.637,38.637,0,0,0,66,40.5c3.625.625,9.063,3.75,9.063,3.75l5.594,4.891v6.432L80.5,63.213a37.677,37.677,0,0,1-1.175,7.259c-.911,2.909-1.175,3.556-1.175,3.556L72.917,82.4S44.083,92.917,43.5,92.917,18.333,84.25,18.333,84.25,12.909,79.9,11.017,75.324Z" transform="translate(-115 2197)" fill="#e4e4e4"/>
      <g id="Group_38564" data-name="Group 38564">
        <path id="Path_3579" data-name="Path 3579" d="M-100.808,2270.708c-.108-4.041,0-18.894,0-18.894s.058-4.981,3.725-5.731,26.583-5,26.583-5l27.25,5.333s3.083,1.417,3.167,4.583,0,19.708,0,19.708.667,4.375-2.333,5.375-27.333,6-27.333,6l-27.833-6A5.945,5.945,0,0,1-100.808,2270.708Z" fill="none" stroke="#118484" stroke-linecap="round" stroke-width="2"/>
        <path id="Path_3580" data-name="Path 3580" d="M-100.856,2249.167l-7.144,3.167" fill="none" stroke="#118484" stroke-linecap="round" stroke-width="2"/>
        <path id="Path_3581" data-name="Path 3581" d="M-100.856,2271.917l-5.977-4.417" fill="none" stroke="#118484" stroke-linecap="round" stroke-width="2"/>
        <path id="Path_3582" data-name="Path 3582" d="M-40.02,2249.5l6.354,2.833" fill="none" stroke="#118484" stroke-linecap="round" stroke-width="2"/>
        <path id="Path_3583" data-name="Path 3583" d="M-40.02,2271.438l5.645-3.937" fill="none" stroke="#118484" stroke-linecap="round" stroke-width="2"/>
      </g>
      <g id="Group_38565" data-name="Group 38565">
        <path id="Path_3304" data-name="Path 3304" d="M246.135,1559.883l10.187-2,9.7,1.994a1.032,1.032,0,1,0,.416-2.022l-9.9-2.036a1.04,1.04,0,0,0-.406,0l-10.391,2.036a1.032,1.032,0,0,0,.4,2.026Z" transform="translate(-326.793 688.103)" fill="#118484"/>
        <path id="Path_3305" data-name="Path 3305" d="M276.616,1580.232l-25.057-3.223a1.069,1.069,0,0,0-.25,0l-12.962,1.5a1.032,1.032,0,0,0,.237,2.051l12.836-1.481,24.932,3.207a1.032,1.032,0,1,0,.264-2.048Z" transform="translate(-321.893 674.198)" fill="#118484"/>
        <path id="Path_3306" data-name="Path 3306" d="M202.685,1585.421a1.1,1.1,0,0,0,.116-.006l9.484-1.062a1.032,1.032,0,0,0-.23-2.052l-9.484,1.062a1.032,1.032,0,0,0,.114,2.058Z" transform="translate(-298.425 670.726)" fill="#118484"/>
        <path id="Path_3307" data-name="Path 3307" d="M331.753,1608.162h.044a1.032,1.032,0,0,0,.043-2.064l-8.01-.339a1.032,1.032,0,0,0-.087,2.063Z" transform="translate(-377.855 655.336)" fill="#118484"/>
        <path id="Path_3308" data-name="Path 3308" d="M213.294,1606a1.032,1.032,0,0,0,1.03.978h.055l21.221-1.129,12.356.481a1.032,1.032,0,0,0,.081-2.063l-12.4-.483c-.032,0-.063,0-.095,0l-21.268,1.131A1.032,1.032,0,0,0,213.294,1606Z" transform="translate(-306.059 656.63)" fill="#118484"/>
        <path id="Path_3309" data-name="Path 3309" d="M287.992,1626.8l-24.937,2.926-6.742-.778a1.032,1.032,0,0,0-.236,2.051l6.861.792a1.036,1.036,0,0,0,.118.007.989.989,0,0,0,.12-.007l25.057-2.94a1.032,1.032,0,0,0-.241-2.051Z" transform="translate(-333.521 641.539)" fill="#118484"/>
        <path id="Path_3310" data-name="Path 3310" d="M216.571,1628.243l-14.388-1.772a1.032,1.032,0,1,0-.252,2.049l14.387,1.772a.981.981,0,0,0,.128.008,1.032,1.032,0,0,0,.125-2.057Z" transform="translate(-298.013 641.756)" fill="#118484"/>
      </g>
    </g>
  </g>
</svg>
