<svg id="Group_38479" data-name="Group 38479" xmlns="http://www.w3.org/2000/svg" width="87.777" height="91.583" viewBox="0 0 87.777 91.583">
  <path id="Path_3289" data-name="Path 3289" d="M688.524,1528.968l9.443,5.753a.894.894,0,1,0,.93-1.526l-9.541-5.813a.888.888,0,0,0-.208-.093l-10.537-3.164a.894.894,0,0,0-1.076.5,5.443,5.443,0,0,0,2.049,6.894,29.79,29.79,0,0,0,6.749,3l.906,2.479-23.931-3.1a.842.842,0,0,0-.136-.007,3.769,3.769,0,0,0-3.651,3.357,3.85,3.85,0,0,0,1.946,4.248.894.894,0,0,0,.724-1.634c-.011-.005-1.141-.528-.9-2.38a1.962,1.962,0,0,1,1.866-1.8l25.31,3.283a.893.893,0,0,0,.954-1.193l-1.568-4.288a.893.893,0,0,0-.61-.557,28.376,28.376,0,0,1-6.718-2.923,3.463,3.463,0,0,1-1.587-3.908Z" transform="translate(-646.876 -1486.218)" fill="#118484"/>
  <path id="Path_3290" data-name="Path 3290" d="M762.373,1597.374H749.5a.9.9,0,0,0-.612.242c-3.023,2.842-8.516,3-8.551,3H711.388a2.4,2.4,0,0,1-1.943-2.373,2.158,2.158,0,0,1,1.6-2.342.89.89,0,0,0,.316-.135h17.45a.894.894,0,0,0,0-1.787H707.32c-1.726,0-1.853-2.061-1.857-2.149-.1-1.972.952-2.315,1.087-2.351a.917.917,0,0,0,.1-.032h21.841a.894.894,0,1,0,0-1.787h-23.9l-.066,0a2.129,2.129,0,0,1-1.418-.5,2.829,2.829,0,0,1-.762-2.061,2.071,2.071,0,0,1,2.084-2.463h2.124a.874.874,0,0,0,.2.025.908.908,0,0,0,.2-.025h21.214a.894.894,0,0,0,0-1.787h-21.3a2.24,2.24,0,0,1-1.062-2.184,1.963,1.963,0,0,1,1.619-2.025h25.522a.893.893,0,0,0,.793-1.306l-2.106-4.051a.9.9,0,0,0-.677-.474,28.389,28.389,0,0,1-7.038-2.034,3.463,3.463,0,0,1-2.076-3.671l9.875,1.621,9.943,4.419,7.008,7.327a.893.893,0,0,0,.646.276H762.6a.894.894,0,0,0,0-1.787H749.7l-6.866-7.178a.888.888,0,0,0-.283-.2l-10.209-4.538a.885.885,0,0,0-.218-.065l-10.857-1.782a.893.893,0,0,0-1,.631,5.443,5.443,0,0,0,2.919,6.573,29.78,29.78,0,0,0,7.078,2.109l1.218,2.342H707.344a.906.906,0,0,0-.136.01,3.769,3.769,0,0,0-3.188,3.8,4.705,4.705,0,0,0,.483,2.187h-.068a3.843,3.843,0,0,0-3.877,4.323,4.5,4.5,0,0,0,1.379,3.341,3.817,3.817,0,0,0,2.2.918,4.891,4.891,0,0,0-.454,2.487,3.712,3.712,0,0,0,3.645,3.844h1.014a4.367,4.367,0,0,0,2.831,6.627.912.912,0,0,0,.139.011h29.044c.246-.005,5.934-.161,9.488-3.244h12.535a.894.894,0,0,0,0-1.787Z" transform="translate(-675.719 -1513.673)" fill="#118484"/>
  <path id="Path_3291" data-name="Path 3291" d="M653.672,1404.887c6.195-6.362,12.908-6.133,12.973-6.13h13.9c2.841,0,3.034,1.627,3.043,1.941v4.3h-7.61a.894.894,0,0,0,0,1.787h4.3v1.52H668.844v-1.677h3.673a.894.894,0,1,0,0-1.787H667.95a.876.876,0,0,0-.131.013c-.013,0-.026,0-.04,0l-.007,0-.008,0c-4.9.965-12.387,9.01-15.381,12.426a.894.894,0,0,0,1.344,1.178c4.191-4.783,9.685-10.066,13.328-11.528v2.262a.893.893,0,0,0,.894.894h13.228a.893.893,0,0,0,.894-.894v-2.414h2.414a.894.894,0,0,0,.894-.894v-5.2c0-1.29-1.01-3.728-4.831-3.728H666.71c-.56-.024-7.665-.165-14.318,6.669a.894.894,0,1,0,1.281,1.247Z" transform="translate(-641.728 -1396.966)" fill="#354463"/>
  <path id="Path_3292" data-name="Path 3292" d="M702.49,1506.592a.894.894,0,1,0,1.787,0v-10.7a.894.894,0,1,0-1.787,0Z" transform="translate(-677.08 -1465.795)" fill="#354463"/>
  <path id="Path_3293" data-name="Path 3293" d="M703.384,1457.605a.894.894,0,0,0,.894-.894v-10.7a.894.894,0,1,0-1.787,0v10.7A.894.894,0,0,0,703.384,1457.605Z" transform="translate(-677.08 -1430.775)" fill="#354463"/>
  <path id="Path_3294" data-name="Path 3294" d="M726.662,1458a.894.894,0,0,0,.894-.894v-1.783a.894.894,0,1,0-1.787,0v1.783A.894.894,0,0,0,726.662,1458Z" transform="translate(-693.424 -1437.311)" fill="#354463"/>
  <path id="Path_3295" data-name="Path 3295" d="M725.1,1476.153a.894.894,0,0,0,1.787,0v-4.425a.894.894,0,0,0-1.787,0Z" transform="translate(-692.957 -1448.829)" fill="#354463"/>
  <path id="Path_3296" data-name="Path 3296" d="M745.284,1451.916a.894.894,0,0,0,.894-.894v-6.34a.894.894,0,1,0-1.787,0v6.34A.894.894,0,0,0,745.284,1451.916Z" transform="translate(-706.498 -1429.84)" fill="#354463"/>
  <path id="Path_3297" data-name="Path 3297" d="M744.39,1481.616a.894.894,0,1,0,1.787,0v-6.34a.894.894,0,0,0-1.787,0Z" transform="translate(-706.498 -1451.32)" fill="#354463"/>
  <path id="Path_3298" data-name="Path 3298" d="M785.571,1494.226a3.271,3.271,0,1,0-3.271-3.271A3.275,3.275,0,0,0,785.571,1494.226Zm0-4.755a1.484,1.484,0,1,1-1.484,1.484A1.486,1.486,0,0,1,785.571,1489.47Z" transform="translate(-733.115 -1460.659)" fill="#354463"/>
  <path id="Path_3299" data-name="Path 3299" d="M836.035,1542.881a4.519,4.519,0,1,0-4.519-4.519A4.524,4.524,0,0,0,836.035,1542.881Zm0-7.251a2.732,2.732,0,1,1-2.731,2.732A2.735,2.735,0,0,1,836.035,1535.63Z" transform="translate(-767.67 -1493.068)" fill="#354463"/>
  <path id="Path_3300" data-name="Path 3300" d="M631.272,1536.791a3.271,3.271,0,1,0-3.271-3.271A3.274,3.274,0,0,0,631.272,1536.791Zm0-4.755a1.484,1.484,0,1,1-1.484,1.484A1.485,1.485,0,0,1,631.272,1532.037Z" transform="translate(-624.781 -1490.545)" fill="#354463"/>
  <path id="Path_3301" data-name="Path 3301" d="M626.455,1615.411a7.834,7.834,0,0,1-7.012-10.478,8.639,8.639,0,0,0,3.729,2.567.894.894,0,0,0,.587-1.688,6.952,6.952,0,0,1-4.628-6.838,6.912,6.912,0,0,1,10.531-5.57.894.894,0,1,0,.94-1.52,8.68,8.68,0,0,0-12.307,11.333.878.878,0,0,0-.169.236,9.619,9.619,0,0,0,8.247,13.744h.041a.894.894,0,0,0,.04-1.786Z" transform="translate(-617.193 -1532.909)" fill="#354463"/>
  <path id="Path_3302" data-name="Path 3302" d="M676.177,1661.354a6.455,6.455,0,0,1-6.324-2.392.894.894,0,0,0-1.254-.161.885.885,0,0,0-.29.4,7.5,7.5,0,0,1-12.057-6.294c0-.049.009-.1.012-.148a9.088,9.088,0,0,0,3.725,1.278.878.878,0,0,0,.1.006.894.894,0,0,0,.1-1.782,7.3,7.3,0,0,1-6.339-5.747.894.894,0,0,0-1.748.371,9.079,9.079,0,0,0,2.526,4.6,9.288,9.288,0,0,0,8.705,11.048c.141.006.282.01.422.01a9.265,9.265,0,0,0,5.365-1.709,8.213,8.213,0,0,0,5.463,2.42c.126.005.251.009.377.009a8.251,8.251,0,0,0,1.554-.147.894.894,0,0,0-.338-1.756Z" transform="translate(-641.688 -1571.675)" fill="#354463"/>
  <path id="Path_3303" data-name="Path 3303" d="M668.6,1584.338a6.543,6.543,0,0,1,4.229,1.807.894.894,0,1,0,1.235-1.292,8.335,8.335,0,0,0-13.618,8.807,7.806,7.806,0,0,0-3.053,2.823.894.894,0,0,0,1.52.941,6.029,6.029,0,0,1,5.393-2.849.894.894,0,0,0,.081-1.786,7.789,7.789,0,0,0-2.27.237,6.549,6.549,0,0,1,6.483-8.689Z" transform="translate(-645.323 -1527.261)" fill="#354463"/>
</svg>
