<svg xmlns="http://www.w3.org/2000/svg" width="104.509" height="57.884" viewBox="0 0 104.509 57.884">
  <g id="Group_38478" data-name="Group 38478" transform="translate(0)">
    <path id="Path_3279" data-name="Path 3279" d="M1172.928,1535.705a5.945,5.945,0,0,0,2.224,2.224,7.16,7.16,0,0,0,3.608.813,6.948,6.948,0,0,0,2.709-.513,6.18,6.18,0,0,0,2.111-1.44,6.4,6.4,0,0,0,1.354-2.167,7.54,7.54,0,0,0,.47-2.7,8,8,0,0,0-.428-2.652,6.14,6.14,0,0,0-1.241-2.124,5.753,5.753,0,0,0-1.982-1.412,6.541,6.541,0,0,0-2.652-.513,5.451,5.451,0,0,0-2.5.584,4.2,4.2,0,0,0-1.811,1.782l-.057-.057q.057-.656.128-1.412a12.29,12.29,0,0,1,.242-1.526,10.184,10.184,0,0,1,.442-1.469,4.558,4.558,0,0,1,.713-1.24,3.359,3.359,0,0,1,1.084-.87,3.32,3.32,0,0,1,1.526-.328,2.756,2.756,0,0,1,2.039.756,3.112,3.112,0,0,1,.87,1.982h3.251a5.354,5.354,0,0,0-.57-2.224,5.752,5.752,0,0,0-1.326-1.711,6.06,6.06,0,0,0-1.868-1.112,6.925,6.925,0,0,0-5.8.542,7.31,7.31,0,0,0-2.324,2.438,10.914,10.914,0,0,0-1.269,3.323,17.519,17.519,0,0,0-.385,3.621,25.094,25.094,0,0,0,.314,4.093A9.757,9.757,0,0,0,1172.928,1535.705Zm2.353-5.4a3.768,3.768,0,0,1,.685-1.3,3.333,3.333,0,0,1,1.127-.884,3.5,3.5,0,0,1,1.554-.328,3.283,3.283,0,0,1,1.54.342,3.392,3.392,0,0,1,1.1.9,3.719,3.719,0,0,1,.656,1.3,5.527,5.527,0,0,1,.214,1.54,5.672,5.672,0,0,1-.214,1.554,3.854,3.854,0,0,1-.656,1.326,3.461,3.461,0,0,1-1.1.927,3.173,3.173,0,0,1-1.54.356,3.367,3.367,0,0,1-1.554-.342,3.327,3.327,0,0,1-1.127-.927,4.084,4.084,0,0,1-.685-1.326,5.506,5.506,0,0,1,0-3.137Z" transform="translate(-1138.813 -1503.716)" fill="#118484"/>
    <path id="Path_3280" data-name="Path 3280" d="M1250.992,1538.344h3.251v-12.32h2.766V1523.6h-2.766v-1.511a1.375,1.375,0,0,1,.471-1.226,1.983,1.983,0,0,1,1.126-.314,7.137,7.137,0,0,1,.841.043,4.661,4.661,0,0,1,.67.128v-2.538a9.321,9.321,0,0,0-2.281-.2,7.26,7.26,0,0,0-1.526.157,3.011,3.011,0,0,0-1.3.628,3.22,3.22,0,0,0-.913,1.34,6.3,6.3,0,0,0-.342,2.268v1.226h-2.424v2.424h2.424Z" transform="translate(-1192.821 -1503.716)" fill="#118484"/>
    <path id="Path_3281" data-name="Path 3281" d="M1280.937,1537.526a8.819,8.819,0,0,0,.185,1.625,2.447,2.447,0,0,0,.6,1.183,2.754,2.754,0,0,0,1.226.713,7.223,7.223,0,0,0,2.068.242,9.63,9.63,0,0,0,1.055-.057q.513-.057,1.055-.114v-2.509a3.4,3.4,0,0,1-.685.1q-.342.015-.684.014a2.313,2.313,0,0,1-.856-.128.951.951,0,0,1-.471-.385,1.521,1.521,0,0,1-.2-.628,7.788,7.788,0,0,1-.043-.884v-7.871h2.938V1526.4h-2.938v-4.42h-3.251v4.42h-2.453v2.424h2.453Z" transform="translate(-1213.783 -1506.52)" fill="#118484"/>
    <path id="Path_3282" data-name="Path 3282" d="M1089.3,1482.316a6,6,0,1,0-6-6A6,6,0,0,0,1089.3,1482.316Zm0-10.2a4.2,4.2,0,1,1-4.2,4.2A4.2,4.2,0,0,1,1089.3,1472.12Z" transform="translate(-1077.028 -1470.324)" fill="#354463"/>
    <path id="Path_3283" data-name="Path 3283" d="M1084.813,1519.735a5.476,5.476,0,0,0-5.469-5.4h-9.485a5.476,5.476,0,0,0-5.469,5.4l-2.057,14.913a.9.9,0,0,0,1.779.246l2.065-14.972a.879.879,0,0,0,.009-.123,3.677,3.677,0,0,1,3.673-3.673h9.485a3.678,3.678,0,0,1,3.673,3.673.93.93,0,0,0,.009.129l2.177,15.01a.9.9,0,0,0,.888.769.869.869,0,0,0,.13-.009.9.9,0,0,0,.76-1.017Z" transform="translate(-1062.325 -1501.16)" fill="#354463"/>
    <path id="Path_3284" data-name="Path 3284" d="M1089.4,1568.372a.9.9,0,1,0-1.776.265l.921,6.162h-2.13a.9.9,0,0,0-.9.9v17.826a1.054,1.054,0,0,1-1.052,1.052H1082.6a1.054,1.054,0,0,1-1.053-1.052V1575.6a.9.9,0,0,0-1.8,0v17.779a.878.878,0,0,0-.015.148,1.054,1.054,0,0,1-1.052,1.052h-1.87a1.054,1.054,0,0,1-1.052-1.052V1575.7a.9.9,0,0,0-.9-.9h-1.984l.888-6.167a.9.9,0,1,0-1.778-.256l-1.036,7.193a.9.9,0,0,0,.889,1.026h2.123v16.928a2.852,2.852,0,0,0,2.848,2.848h1.87a2.834,2.834,0,0,1,3.916,0h1.869a2.851,2.851,0,0,0,2.848-2.848V1576.6h2.274a.9.9,0,0,0,.888-1.031Z" transform="translate(-1068.365 -1538.487)" fill="#354463"/>
    <path id="Path_3285" data-name="Path 3285" d="M1363.172,1482.316a6,6,0,1,0-6-6A6,6,0,0,0,1363.172,1482.316Zm0-10.2a4.2,4.2,0,1,1-4.2,4.2A4.2,4.2,0,0,1,1363.172,1472.12Z" transform="translate(-1268.92 -1470.324)" fill="#354463"/>
    <path id="Path_3286" data-name="Path 3286" d="M1357.962,1513.421h-9.531a5.5,5.5,0,0,0-5.492,5.491v17.29a.9.9,0,0,0,1.8,0v-17.29a3.7,3.7,0,0,1,3.7-3.7h9.531a3.7,3.7,0,0,1,3.7,3.7v17.447a.9.9,0,0,0,1.8,0v-17.447A5.5,5.5,0,0,0,1357.962,1513.421Z" transform="translate(-1258.944 -1500.521)" fill="#354463"/>
    <path id="Path_3287" data-name="Path 3287" d="M1367.32,1571.345a.9.9,0,0,0-.9.9v23.693a1.063,1.063,0,0,1-1.062,1.062h-1.879a1.063,1.063,0,0,1-1.062-1.062v-18.015a.9.9,0,1,0-1.8,0v17.867a.9.9,0,0,0-.015.148,1.063,1.063,0,0,1-1.062,1.062h-1.879a1.063,1.063,0,0,1-1.062-1.062V1572.05a.9.9,0,1,0-1.8,0v23.885a2.861,2.861,0,0,0,2.858,2.858h1.879a2.843,2.843,0,0,1,3.935,0h1.879a2.861,2.861,0,0,0,2.858-2.858v-23.693A.9.9,0,0,0,1367.32,1571.345Z" transform="translate(-1267.263 -1540.972)" fill="#354463"/>
    <path id="Path_3288" data-name="Path 3288" d="M1202.622,1594.28l-2.784-1.754a.572.572,0,1,0-.61.969l1.114.7H1148.69l1.114-.7a.572.572,0,1,0-.61-.969l-2.784,1.754a.573.573,0,0,0-.039.942l2.665,2a.572.572,0,1,0,.688-.915l-1.288-.968H1200.6l-1.288.968a.572.572,0,0,0,.688.915l2.665-2a.573.573,0,0,0-.039-.942Z" transform="translate(-1121.054 -1555.886)" fill="#118484"/>
  </g>
</svg>
