<svg xmlns="http://www.w3.org/2000/svg" width="113.515" height="81.822" viewBox="0 0 113.515 81.822">
  <g id="Group_38577" data-name="Group 38577" transform="translate(-806.994 -2194)">
    <g id="Group_38576" data-name="Group 38576" transform="translate(-927 -35)">
      <g id="Group_38569" data-name="Group 38569" transform="translate(4)">
        <path id="Path_3285" data-name="Path 3285" d="M1363.172,1482.316a6,6,0,1,0-6-6A6,6,0,0,0,1363.172,1482.316Zm0-10.2a4.2,4.2,0,1,1-4.2,4.2A4.2,4.2,0,0,1,1363.172,1472.12Z" transform="translate(470.08 782.676)" fill="#354463"/>
        <path id="Path_3286" data-name="Path 3286" d="M1357.962,1513.421h-9.531a5.5,5.5,0,0,0-5.492,5.491v17.29a.9.9,0,0,0,1.8,0v-17.29a3.7,3.7,0,0,1,3.7-3.7h9.531a3.7,3.7,0,0,1,3.7,3.7v17.447a.9.9,0,0,0,1.8,0v-17.447A5.5,5.5,0,0,0,1357.962,1513.421Z" transform="translate(480.056 752.479)" fill="#354463"/>
        <path id="Path_3287" data-name="Path 3287" d="M1367.32,1571.345a.9.9,0,0,0-.9.9v23.693a1.063,1.063,0,0,1-1.062,1.062h-1.879a1.063,1.063,0,0,1-1.062-1.062v-18.015a.9.9,0,1,0-1.8,0v17.867a.9.9,0,0,0-.015.148,1.063,1.063,0,0,1-1.062,1.062h-1.879a1.063,1.063,0,0,1-1.062-1.062V1572.05a.9.9,0,1,0-1.8,0v23.885a2.861,2.861,0,0,0,2.858,2.858h1.879a2.843,2.843,0,0,1,3.935,0h1.879a2.861,2.861,0,0,0,2.858-2.858v-23.693A.9.9,0,0,0,1367.32,1571.345Z" transform="translate(471.738 712.028)" fill="#354463"/>
      </g>
      <g id="Group_38571" data-name="Group 38571" transform="translate(-17)">
        <path id="Path_3285-2" data-name="Path 3285" d="M1363.172,1482.316a6,6,0,1,0-6-6A6,6,0,0,0,1363.172,1482.316Zm0-10.2a4.2,4.2,0,1,1-4.2,4.2A4.2,4.2,0,0,1,1363.172,1472.12Z" transform="translate(470.08 782.676)" fill="#354463"/>
        <path id="Path_3286-2" data-name="Path 3286" d="M1357.962,1513.421h-9.531a5.5,5.5,0,0,0-5.492,5.491v17.29a.9.9,0,0,0,1.8,0v-17.29a3.7,3.7,0,0,1,3.7-3.7h9.531a3.7,3.7,0,0,1,3.7,3.7v17.447a.9.9,0,0,0,1.8,0v-17.447A5.5,5.5,0,0,0,1357.962,1513.421Z" transform="translate(480.056 752.479)" fill="#354463"/>
        <path id="Path_3287-2" data-name="Path 3287" d="M1367.32,1571.345a.9.9,0,0,0-.9.9v23.693a1.063,1.063,0,0,1-1.062,1.062h-1.879a1.063,1.063,0,0,1-1.062-1.062v-18.015a.9.9,0,1,0-1.8,0v17.867a.9.9,0,0,0-.015.148,1.063,1.063,0,0,1-1.062,1.062h-1.879a1.063,1.063,0,0,1-1.062-1.062V1572.05a.9.9,0,1,0-1.8,0v23.885a2.861,2.861,0,0,0,2.858,2.858h1.879a2.843,2.843,0,0,1,3.935,0h1.879a2.861,2.861,0,0,0,2.858-2.858v-23.693A.9.9,0,0,0,1367.32,1571.345Z" transform="translate(471.738 712.028)" fill="#354463"/>
      </g>
      <g id="Group_38572" data-name="Group 38572" transform="translate(-38)">
        <path id="Path_3285-3" data-name="Path 3285" d="M1363.172,1482.316a6,6,0,1,0-6-6A6,6,0,0,0,1363.172,1482.316Zm0-10.2a4.2,4.2,0,1,1-4.2,4.2A4.2,4.2,0,0,1,1363.172,1472.12Z" transform="translate(470.08 782.676)" fill="#354463"/>
        <path id="Path_3286-3" data-name="Path 3286" d="M1357.962,1513.421h-9.531a5.5,5.5,0,0,0-5.492,5.491v17.29a.9.9,0,0,0,1.8,0v-17.29a3.7,3.7,0,0,1,3.7-3.7h9.531a3.7,3.7,0,0,1,3.7,3.7v17.447a.9.9,0,0,0,1.8,0v-17.447A5.5,5.5,0,0,0,1357.962,1513.421Z" transform="translate(480.056 752.479)" fill="#354463"/>
        <path id="Path_3287-3" data-name="Path 3287" d="M1367.32,1571.345a.9.9,0,0,0-.9.9v23.693a1.063,1.063,0,0,1-1.062,1.062h-1.879a1.063,1.063,0,0,1-1.062-1.062v-18.015a.9.9,0,1,0-1.8,0v17.867a.9.9,0,0,0-.015.148,1.063,1.063,0,0,1-1.062,1.062h-1.879a1.063,1.063,0,0,1-1.062-1.062V1572.05a.9.9,0,1,0-1.8,0v23.885a2.861,2.861,0,0,0,2.858,2.858h1.879a2.843,2.843,0,0,1,3.935,0h1.879a2.861,2.861,0,0,0,2.858-2.858v-23.693A.9.9,0,0,0,1367.32,1571.345Z" transform="translate(471.738 712.028)" fill="#354463"/>
      </g>
      <g id="Group_38573" data-name="Group 38573" transform="translate(-38 -24)">
        <path id="Path_3285-4" data-name="Path 3285" d="M1363.172,1482.316a6,6,0,1,0-6-6A6,6,0,0,0,1363.172,1482.316Zm0-10.2a4.2,4.2,0,1,1-4.2,4.2A4.2,4.2,0,0,1,1363.172,1472.12Z" transform="translate(470.08 782.676)" fill="#354463"/>
        <path id="Path_3286-4" data-name="Path 3286" d="M1357.962,1513.421h-9.531a5.5,5.5,0,0,0-5.492,5.491v4.29a.9.9,0,0,0,1.8,0v-4.29a3.7,3.7,0,0,1,3.7-3.7h9.531a3.7,3.7,0,0,1,3.7,3.7v4.447a.9.9,0,0,0,1.8,0v-4.447A5.5,5.5,0,0,0,1357.962,1513.421Z" transform="translate(480.056 752.479)" fill="#354463"/>
      </g>
      <g id="Group_38574" data-name="Group 38574" transform="translate(-17 -24)">
        <path id="Path_3285-5" data-name="Path 3285" d="M1363.172,1482.316a6,6,0,1,0-6-6A6,6,0,0,0,1363.172,1482.316Zm0-10.2a4.2,4.2,0,1,1-4.2,4.2A4.2,4.2,0,0,1,1363.172,1472.12Z" transform="translate(470.08 782.676)" fill="#354463"/>
        <path id="Path_3286-5" data-name="Path 3286" d="M1357.962,1513.421h-9.531a5.5,5.5,0,0,0-5.492,5.491v4.29a.9.9,0,0,0,1.8,0v-4.29a3.7,3.7,0,0,1,3.7-3.7h9.531a3.7,3.7,0,0,1,3.7,3.7v4.447a.9.9,0,0,0,1.8,0v-4.447A5.5,5.5,0,0,0,1357.962,1513.421Z" transform="translate(480.056 752.479)" fill="#354463"/>
      </g>
      <g id="Group_38575" data-name="Group 38575" transform="translate(4 -24)">
        <path id="Path_3285-6" data-name="Path 3285" d="M1363.172,1482.316a6,6,0,1,0-6-6A6,6,0,0,0,1363.172,1482.316Zm0-10.2a4.2,4.2,0,1,1-4.2,4.2A4.2,4.2,0,0,1,1363.172,1472.12Z" transform="translate(470.08 782.676)" fill="#354463"/>
        <path id="Path_3286-6" data-name="Path 3286" d="M1357.962,1513.421h-9.531a5.5,5.5,0,0,0-5.492,5.491v4.29a.9.9,0,0,0,1.8,0v-4.29a3.7,3.7,0,0,1,3.7-3.7h9.531a3.7,3.7,0,0,1,3.7,3.7v4.447a.9.9,0,0,0,1.8,0v-4.447A5.5,5.5,0,0,0,1357.962,1513.421Z" transform="translate(480.056 752.479)" fill="#354463"/>
      </g>
      <g id="Group_38570" data-name="Group 38570" transform="translate(-89)">
        <path id="Path_3285-7" data-name="Path 3285" d="M1363.172,1482.316a6,6,0,1,0-6-6A6,6,0,0,0,1363.172,1482.316Zm0-10.2a4.2,4.2,0,1,1-4.2,4.2A4.2,4.2,0,0,1,1363.172,1472.12Z" transform="translate(470.08 782.676)" fill="#118484"/>
        <path id="Path_3286-7" data-name="Path 3286" d="M1357.962,1513.421h-9.531a5.5,5.5,0,0,0-5.492,5.491v17.29a.9.9,0,0,0,1.8,0v-17.29a3.7,3.7,0,0,1,3.7-3.7h9.531a3.7,3.7,0,0,1,3.7,3.7v17.447a.9.9,0,0,0,1.8,0v-17.447A5.5,5.5,0,0,0,1357.962,1513.421Z" transform="translate(480.056 752.479)" fill="#118484"/>
        <path id="Path_3287-4" data-name="Path 3287" d="M1367.32,1571.345a.9.9,0,0,0-.9.9v23.693a1.063,1.063,0,0,1-1.062,1.062h-1.879a1.063,1.063,0,0,1-1.062-1.062v-18.015a.9.9,0,1,0-1.8,0v17.867a.9.9,0,0,0-.015.148,1.063,1.063,0,0,1-1.062,1.062h-1.879a1.063,1.063,0,0,1-1.062-1.062V1572.05a.9.9,0,1,0-1.8,0v23.885a2.861,2.861,0,0,0,2.858,2.858h1.879a2.843,2.843,0,0,1,3.935,0h1.879a2.861,2.861,0,0,0,2.858-2.858v-23.693A.9.9,0,0,0,1367.32,1571.345Z" transform="translate(471.738 712.028)" fill="#118484"/>
      </g>
    </g>
  </g>
</svg>
