<svg xmlns="http://www.w3.org/2000/svg" width="130" height="130" viewBox="0 0 130 130"><defs><style>.a{fill:#57a4ff;}.b{fill:#004fac;}</style></defs><g transform="translate(-8 -8)"><g transform="translate(10.097 18.484)"><path class="a" d="M16,163.661l23.065,12.3V145.07L16,157.37Z" transform="translate(-16 -119.628)"/><path class="a" d="M408,175.961l23.065-12.3v-6.29L408,145.07Z" transform="translate(-305.258 -119.628)"/><path class="a" d="M136,48h25.161V60.581H136Z" transform="translate(-104.548 -48)"/></g><g transform="translate(8 8)"><path class="b" d="M136.889,54.375,114.935,42.668V10.1a2.1,2.1,0,0,0-2.1-2.1H33.161a2.1,2.1,0,0,0-2.1,2.1V42.668L9.111,54.375A2.1,2.1,0,0,0,8,56.226v74.435A7.347,7.347,0,0,0,15.339,138H130.661A7.347,7.347,0,0,0,138,130.661V56.226a2.1,2.1,0,0,0-1.111-1.85ZM35.258,12.194h75.484V73.558L73,93.687,35.258,73.558ZM12.194,57.484,31.065,47.419v23.9L12.194,61.258Zm121.613,73.177a3.148,3.148,0,0,1-3.145,3.145H15.339a3.148,3.148,0,0,1-3.145-3.145V66.01L72.015,97.915a2.094,2.094,0,0,0,1.971,0L133.806,66.01Zm0-69.4L114.935,71.323v-23.9l18.871,10.065Z" transform="translate(-8 -8)"/><path class="b" d="M75.645,400H42.1a2.1,2.1,0,0,0-2.1,2.1v14.677a2.1,2.1,0,0,0,2.1,2.1H75.645a2.1,2.1,0,0,0,2.1-2.1V402.1A2.1,2.1,0,0,0,75.645,400Zm-2.1,14.677H44.194V404.194H73.548Z" transform="translate(-31.613 -297.258)"/><path class="b" d="M130.1,56.774h25.161a2.1,2.1,0,0,0,2.1-2.1V42.1a2.1,2.1,0,0,0-2.1-2.1H130.1a2.1,2.1,0,0,0-2.1,2.1V54.677A2.1,2.1,0,0,0,130.1,56.774Zm2.1-12.581h20.968v8.387H132.194Z" transform="translate(-96.548 -31.613)"/><path class="b" d="M130.1,124.194H193A2.1,2.1,0,0,0,193,120H130.1a2.1,2.1,0,0,0,0,4.194Z" transform="translate(-96.548 -90.645)"/><path class="b" d="M130.1,148.194H193A2.1,2.1,0,0,0,193,144H130.1a2.1,2.1,0,0,0,0,4.194Z" transform="translate(-96.548 -108.355)"/><path class="b" d="M130.1,172.194h37.742a2.1,2.1,0,0,0,0-4.194H130.1a2.1,2.1,0,0,0,0,4.194Z" transform="translate(-96.548 -126.065)"/><path class="b" d="M298.1,168a2.1,2.1,0,1,0,0,4.194h2.1a2.1,2.1,0,1,0,0-4.194Z" transform="translate(-220.516 -126.065)"/><path class="b" d="M130.1,204.194H193A2.1,2.1,0,0,0,193,200H130.1a2.1,2.1,0,0,0,0,4.194Z" transform="translate(-96.548 -149.677)"/><path class="b" d="M130.1,228.194H193A2.1,2.1,0,0,0,193,224H130.1a2.1,2.1,0,0,0,0,4.194Z" transform="translate(-96.548 -167.387)"/><path class="b" d="M130.1,252.194h37.742a2.1,2.1,0,0,0,0-4.194H130.1a2.1,2.1,0,0,0,0,4.194Z" transform="translate(-96.548 -185.097)"/><path class="b" d="M300.194,248h-2.1a2.1,2.1,0,1,0,0,4.194h2.1a2.1,2.1,0,0,0,0-4.194Z" transform="translate(-220.516 -185.097)"/></g></g></svg>