<svg xmlns="http://www.w3.org/2000/svg" width="49.505" height="69.705" viewBox="0 0 49.505 69.705"><defs><style>.a{fill:#0984e3;}</style></defs><path class="a" d="M69.268,37.98H62.953v4.636a2.108,2.108,0,0,1-2.108,2.108H31.981a2.108,2.108,0,0,1-2.108-2.108V37.98h-6.8a1.659,1.659,0,0,0-1.657,1.657V100.69a1.659,1.659,0,0,0,1.657,1.657H69.268a1.659,1.659,0,0,0,1.657-1.657V39.637A1.659,1.659,0,0,0,69.268,37.98ZM28.247,49.632H41.719a2.108,2.108,0,1,1,0,4.216H28.247a2.108,2.108,0,1,1,0-4.216Zm0,12.867H41.719a2.108,2.108,0,0,1,0,4.216H28.247a2.108,2.108,0,0,1,0-4.216Zm0,12.869H41.719a2.108,2.108,0,1,1,0,4.216H28.247a2.108,2.108,0,1,1,0-4.216Zm0,11.626H46.413a2.108,2.108,0,1,1,0,4.216H28.247a2.108,2.108,0,1,1,0-4.216Zm30.666,11.2H28.247a2.108,2.108,0,1,1,0-4.216H58.913a2.108,2.108,0,1,1,0,4.216Zm6.675-22.511L59.021,82.25a2.109,2.109,0,0,1-2.981,0l-3.8-3.8a2.109,2.109,0,0,1,2.982-2.982l2.31,2.312c3.132-3.131,1.945-1.944,5.077-5.076a2.108,2.108,0,0,1,2.981,2.981Zm0-12.869-6.567,6.567a2.106,2.106,0,0,1-2.981,0l-3.8-3.8A2.108,2.108,0,1,1,55.22,62.6l2.31,2.31,5.077-5.076a2.108,2.108,0,0,1,2.981,2.981Zm0-12.867-6.567,6.567a2.109,2.109,0,0,1-2.981,0l-3.8-3.8A2.108,2.108,0,1,1,55.22,49.73l2.31,2.312c3.132-3.131,1.945-1.944,5.077-5.076a2.108,2.108,0,0,1,2.981,2.981Z" transform="translate(-21.42 -32.643)"/><path class="a" d="M135.516,0H112.273a.7.7,0,0,0-.7.7v6.46a.7.7,0,0,0,.7.7h23.243a.7.7,0,0,0,.7-.7V.7A.7.7,0,0,0,135.516,0Z" transform="translate(-98.901)"/></svg>