<svg xmlns="http://www.w3.org/2000/svg" width="57.315" height="46.441" viewBox="0 0 57.315 46.441">
  <g id="Group_38558" data-name="Group 38558" transform="translate(-523 -639)">
    <g id="syringe-medical-coronavirus-covid19-drug" transform="translate(516 621)">
      <path id="Path_3312" data-name="Path 3312" d="M15,49h2v2a1,1,0,0,0,1,1h4a1,1,0,0,0,1-1V49h2a1,1,0,0,0,1-1V44a1,1,0,0,0-1-1H23V41a1,1,0,0,0-1-1H18a1,1,0,0,0-1,1v2H15a1,1,0,0,0-1,1v4A1,1,0,0,0,15,49Zm1-4h2a1,1,0,0,0,1-1V42h2v2a1,1,0,0,0,1,1h2v2H22a1,1,0,0,0-1,1v2H19V48a1,1,0,0,0-1-1H16Z" fill="#fff"/>
      <path id="Path_3313" data-name="Path 3313" d="M26,28V26h1a1,1,0,0,0,1-1V21a3.009,3.009,0,0,0-3-3H15a3.009,3.009,0,0,0-3,3v4a1,1,0,0,0,1,1h1v2a7.008,7.008,0,0,0-7,7V59a3.009,3.009,0,0,0,3,3H30a3.009,3.009,0,0,0,3-3V35A7.008,7.008,0,0,0,26,28ZM14,21a1,1,0,0,1,1-1H25a1,1,0,0,1,1,1v3H14ZM31,59a1,1,0,0,1-1,1H10a1,1,0,0,1-1-1V56H31Zm0-5H9V38H31Zm0-18H9V35a5,5,0,0,1,5-5,2.006,2.006,0,0,0,2-2V26h8v2a2.006,2.006,0,0,0,2,2,5,5,0,0,1,5,5Z" fill="#fff"/>
    </g>
    <g id="Authorization_manager" data-name="Authorization manager" transform="translate(543 641)">
      <g id="_2-users" data-name="2-users" transform="translate(0)">
        <g id="Group_38487" data-name="Group 38487" transform="translate(0)">
          <path id="Path_3319" data-name="Path 3319" d="M36.621,346.254l-.054-.307c-.466-2.65-1.105-6.279-3.525-8.086a10.97,10.97,0,0,0-3.294-1.5c-.44-.144-.856-.28-1.251-.435-.577-.227-1.1-.449-1.584-.694a9.962,9.962,0,0,1-8.256,4.168,9.959,9.959,0,0,1-8.254-4.168c-.487.245-1.007.467-1.584.694-.4.155-.811.291-1.251.435a10.969,10.969,0,0,0-3.294,1.5c-2.421,1.807-3.059,5.437-3.526,8.087l-.054.306A45.511,45.511,0,0,0,0,352.6c-.081,2.357,1.382,2.882,2.672,3.346l.139.05a39.878,39.878,0,0,0,5.307,1.466,52.545,52.545,0,0,0,10.528,1.307h.016a52.539,52.539,0,0,0,10.528-1.307,39.819,39.819,0,0,0,5.306-1.466l.139-.05c1.291-.464,2.754-.989,2.673-3.346A45.467,45.467,0,0,0,36.621,346.254Z" transform="translate(0 -314.324)" fill="#fff"/>
          <path id="Path_3320" data-name="Path 3320" d="M117.657,113.035c6.485,0,8.819-6.494,9.43-11.828.752-6.571-2.355-11.517-9.43-11.517s-10.183,4.945-9.429,11.517C108.839,106.541,111.172,113.035,117.657,113.035Z" transform="translate(-98.914 -89.69)" fill="#fff"/>
        </g>
      </g>
    </g>
    <g id="padlock" transform="translate(555.376 668.226)">
      <path id="Path_3323" data-name="Path 3323" d="M13.245,18.757H4.464A1.465,1.465,0,0,1,3,17.293v-6.83A1.465,1.465,0,0,1,4.464,9h8.781a1.465,1.465,0,0,1,1.464,1.464v6.83A1.465,1.465,0,0,1,13.245,18.757ZM4.464,9.976a.488.488,0,0,0-.488.488v6.83a.488.488,0,0,0,.488.488h8.781a.488.488,0,0,0,.488-.488v-6.83a.488.488,0,0,0-.488-.488Z" transform="translate(-3 -3.146)" fill="#375d9d"/>
      <path id="Path_3324" data-name="Path 3324" d="M13.318,6.83a.488.488,0,0,1-.488-.488V3.9a2.927,2.927,0,1,0-5.854,0V6.342a.488.488,0,1,1-.976,0V3.9a3.9,3.9,0,1,1,7.805,0V6.342A.488.488,0,0,1,13.318,6.83Z" transform="translate(-4.049)" fill="#375d9d"/>
      <path id="Path_3325" data-name="Path 3325" d="M11.3,15.6a1.3,1.3,0,1,1,1.3-1.3A1.3,1.3,0,0,1,11.3,15.6Zm0-1.626a.325.325,0,1,0,.325.325A.326.326,0,0,0,11.3,13.976Z" transform="translate(-5.447 -4.544)" fill="#375d9d"/>
      <path id="Path_3326" data-name="Path 3326" d="M11.738,18.514a.488.488,0,0,1-.488-.488V16.238a.488.488,0,1,1,.976,0v1.789A.488.488,0,0,1,11.738,18.514Z" transform="translate(-5.884 -5.505)" fill="#375d9d"/>
    </g>
  </g>
</svg>
