<svg xmlns="http://www.w3.org/2000/svg" width="54" height="54" viewBox="0 0 54 54">
  <g id="noun_vaccine_3249719" transform="translate(-2 -2)">
    <path id="Path_3561" data-name="Path 3561" d="M24.169,42.959l1.559-.9-1.8-3.118-1.559.9.45.779-1.626.939a5.4,5.4,0,0,0-3.259-1.878V37.8h.9V36h-3.6v1.8h.9v1.881a5.4,5.4,0,0,0-3.259,1.878l-1.626-.939.45-.779-1.559-.9-1.8,3.118,1.559.9.45-.779,1.629.94a5.31,5.31,0,0,0,0,3.759l-1.629.94L9.9,47.04l-1.559.9,1.8,3.118,1.559-.9-.45-.779,1.626-.939a5.4,5.4,0,0,0,3.259,1.878V52.2h-.9V54h3.6V52.2h-.9V50.319a5.4,5.4,0,0,0,3.259-1.878l1.626.939-.45.779,1.559.9,1.8-3.118-1.559-.9-.45.779-1.629-.94a5.31,5.31,0,0,0,0-3.759l1.629-.94ZM17.034,48.6a3.6,3.6,0,1,1,3.6-3.6A3.6,3.6,0,0,1,17.034,48.6Z" transform="translate(-0.634 -3.4)" fill="#fff"/>
    <path id="Path_3562" data-name="Path 3562" d="M22.7,26.845V24.1h1.8a.9.9,0,0,0,.9-.9V16.9a.9.9,0,0,0-.9-.9H8.3a.9.9,0,0,0-.9.9v6.3a.9.9,0,0,0,.9.9h1.8v2.745A9.013,9.013,0,0,0,2,35.8V56.5a.9.9,0,0,0,.9.9h27a.9.9,0,0,0,.9-.9V35.8A9.013,9.013,0,0,0,22.7,26.845ZM9.2,17.8H23.6v4.5H9.2ZM29,55.6H3.8V35.8A7.208,7.208,0,0,1,11,28.6a.9.9,0,0,0,.9-.9V24.1h9v3.6a.9.9,0,0,0,.9.9A7.208,7.208,0,0,1,29,35.8Z" transform="translate(0 -1.4)" fill="#fff"/>
    <path id="Path_3563" data-name="Path 3563" d="M57.9,54.2V49.7h.9a.9.9,0,0,0,.9-.9V20.9a.9.9,0,0,0-.9-.9H57V13.7a.9.9,0,0,0-.9-.9h-.9V2H53.4V12.8h-.9a.9.9,0,0,0-.9.9V20H49.8a.9.9,0,0,0-.9.9V48.8a.9.9,0,0,0,.9.9h.9v4.5H48V56H60.6V54.2ZM53.4,14.6h1.8V20H53.4Zm-2.7,7.2h7.2v3.6H56.1v1.8h1.8V29H56.1v1.8h1.8v1.8H54.3v1.8h3.6v1.8H56.1V38h1.8v1.8H56.1v1.8h1.8v1.8H54.3v1.8h3.6v2.7H50.7Zm1.8,32.4V49.7h3.6v4.5Z" transform="translate(-4.6)" fill="#fff"/>
    <path id="Path_3564" data-name="Path 3564" d="M20.549,11.187l-.8-1.614c-.584.289-1.162.607-1.716.943l.935,1.538C19.479,11.745,20.01,11.453,20.549,11.187Z" transform="translate(-1.603 -0.757)" fill="#fff"/>
    <path id="Path_3565" data-name="Path 3565" d="M17.12,13.282l-1.066-1.45c-.527.386-1.04.8-1.526,1.226l1.186,1.354C16.163,14.018,16.636,13.638,17.12,13.282Z" transform="translate(-1.253 -0.983)" fill="#fff"/>
    <path id="Path_3566" data-name="Path 3566" d="M24.294,9.723l-.5-1.728c-.623.181-1.248.393-1.856.63l.653,1.678C23.146,10.084,23.721,9.889,24.294,9.723Z" transform="translate(-1.993 -0.6)" fill="#fff"/>
    <path id="Path_3567" data-name="Path 3567" d="M50.835,16.993c-.383-.52-.8-1.032-1.231-1.525l-1.35,1.192c.4.452.78.923,1.131,1.4Z" transform="translate(-4.625 -1.347)" fill="#fff"/>
    <path id="Path_3568" data-name="Path 3568" d="M28.241,8.938l-.194-1.789c-.647.07-1.3.17-1.937.3l.35,1.766C27.047,9.095,27.646,9,28.241,8.938Z" transform="translate(-2.411 -0.515)" fill="#fff"/>
    <path id="Path_3569" data-name="Path 3569" d="M47.956,13.757c-.469-.448-.965-.882-1.476-1.29l-1.123,1.406c.469.375.925.774,1.356,1.185Z" transform="translate(-4.336 -1.047)" fill="#fff"/>
    <path id="Path_3570" data-name="Path 3570" d="M44.568,11.07c-.541-.36-1.1-.7-1.675-1.014l-.865,1.579c.526.288,1.044.6,1.542.933Z" transform="translate(-4.003 -0.806)" fill="#fff"/>
    <path id="Path_3571" data-name="Path 3571" d="M40.765,9.016c-.594-.261-1.21-.5-1.827-.707l-.577,1.706c.569.193,1.135.411,1.681.652Z" transform="translate(-3.636 -0.631)" fill="#fff"/>
    <path id="Path_3572" data-name="Path 3572" d="M36.664,7.66c-.632-.153-1.279-.281-1.924-.378l-.268,1.78c.592.09,1.188.206,1.769.347Z" transform="translate(-3.247 -0.528)" fill="#fff"/>
    <path id="Path_3573" data-name="Path 3573" d="M30.943,8.8q.671,0,1.333.042l.112-1.8c-.643-.041-1.3-.054-1.955-.04l.039,1.8Z" transform="translate(-2.843 -0.5)" fill="#fff"/>
    <path id="Path_3574" data-name="Path 3574" d="M42.264,51.955l.882,1.569c.558-.314,1.108-.656,1.636-1.015l-1.014-1.487C43.283,51.352,42.777,51.666,42.264,51.955Z" transform="translate(-4.026 -4.902)" fill="#fff"/>
    <path id="Path_3575" data-name="Path 3575" d="M46.838,48.537c-.423.41-.869.806-1.326,1.176l1.138,1.4c.495-.4.979-.833,1.44-1.277Z" transform="translate(-4.351 -4.654)" fill="#fff"/>
    <path id="Path_3576" data-name="Path 3576" d="M38.685,53.611l.6,1.7c.6-.212,1.2-.455,1.786-.721l-.745-1.639C39.787,53.194,39.236,53.417,38.685,53.611Z" transform="translate(-3.669 -5.095)" fill="#fff"/>
    <path id="Path_3577" data-name="Path 3577" d="M34.883,54.633l.3,1.775c.63-.106,1.264-.242,1.885-.4l-.454-1.742C36.043,54.41,35.461,54.535,34.883,54.633Z" transform="translate(-3.288 -5.226)" fill="#fff"/>
    <path id="Path_3578" data-name="Path 3578" d="M36.3,13H34.5A4.505,4.505,0,0,1,30,17.5v1.8a4.505,4.505,0,0,1,4.5,4.5h1.8a4.505,4.505,0,0,1,4.5-4.5V17.5A4.505,4.505,0,0,1,36.3,13Zm-.9,7.572A6.333,6.333,0,0,0,33.228,18.4,6.333,6.333,0,0,0,35.4,16.228,6.333,6.333,0,0,0,37.572,18.4,6.333,6.333,0,0,0,35.4,20.572Z" transform="translate(-2.8 -1.1)" fill="#fff"/>
  </g>
</svg>
