<svg xmlns="http://www.w3.org/2000/svg" width="40.333" height="66.705" viewBox="0 0 40.333 66.705"><defs><style>.a{fill:#0984e3;}</style></defs><path class="a" d="M214.205,12.41A6.205,6.205,0,1,0,208,6.205,6.223,6.223,0,0,0,214.205,12.41Z" transform="translate(-190.936)"/><path class="a" d="M131,117.718v-6.205a15.905,15.905,0,0,1-13.5-7.6l-2.947-4.964A6.051,6.051,0,0,0,109.282,96a6.226,6.226,0,0,0-2.327.465l-16.288,6.671v14.582h6.205V107.324L102.3,105,93.77,148.743h6.515l5.429-24.82,6.671,6.205v18.615h6.205V125.319l-6.36-6.36,1.862-9.308A21.649,21.649,0,0,0,131,117.718Z" transform="translate(-90.667 -82.039)"/></svg>