<svg xmlns="http://www.w3.org/2000/svg" width="201.355" height="212" viewBox="0 0 201.355 212"><defs><style>.a{fill:#e4ba94;}.b{fill:#ebf4f1;}.c{fill:#da8483;}.d{fill:#1e316a;}.e{fill:#a1ab9c;}.f{fill:#d59470;}.g{fill:#8d3347;}.h{fill:#cad6c4;}.i{fill:#944b5b;}</style></defs><g transform="translate(-83.873 -64.104)"><g transform="translate(83.873 64.104)"><g transform="translate(0 52.621)"><path class="a" d="M89.63,383.589c2.643,6.329,5.709,13.037,11.022,16.945l168.042-4.226c2.211-19.29,5.171-43.094,6.919-56.983.422-3.349.708-7.151-1.519-9.428-1.974-2.018-5.391-2.074-8.2-.927s-5.168,3.281-7.448,5.365a125.89,125.89,0,0,0-1.218-45.379c-.979-4.56-2.6-9.508-6.758-11.4-4.932-2.241-11.4,1.107-14.724,5.95s-4.28,10.731-5.143,16.374c-3.256-5.378-6.578-10.835-11.3-14.926s-11.123-6.7-17.622-5.48c-10.765,2.025-17.772,13.109-23.2,22.983-1.876-14.172-13.533-25.975-27.817-26.689s-29.614,10.72-32.391,25.168c-1.145-3.508-5.921-4.492-9.43-2.766s-5.842,5.328-7.349,8.94a33.98,33.98,0,0,0-2.28,18.429c.589,3.588,1.758,7.4.13,10.852-1.589,3.374-5.278,5.187-8.1,7.675-5.537,4.888-7.734,12.686-7.318,19.709S86.991,377.269,89.63,383.589Z" transform="translate(-83.873 -275.737)"/></g><g transform="translate(26.263 0)"><path class="b" d="M333.186,216.879H189.5V64.1H333.186Zm-142.692-.995h141.7V65.1h-141.7Z" transform="translate(-189.5 -64.104)"/><g transform="translate(5.528 5.304)"><rect class="b" width="63.175" height="140.482"/><g transform="translate(67.344)"><rect class="b" width="63.175" height="140.482"/></g></g></g></g><g transform="translate(131.508 64.794)"><g transform="translate(77.95 43.13)"><g transform="translate(0 94.521)"><path class="c" d="M650.325,693.305c-3.206-24.162-5.113-48.456-6.486-72.81H588.96c.88,24.593,3.829,49,10.267,72.81Z" transform="translate(-588.96 -620.495)"/></g><g transform="translate(1.947)"><path class="d" d="M646.405,342.252c-1.711-31.843,8.069-78.681-2.28-93.137-7.841-1.836-31.733-7.023-39.289-8.77-2,4.733-6.139,18.749-6.139,24.03a567.454,567.454,0,0,0-1.052,77.526Z" transform="translate(-596.79 -240.345)"/></g><g transform="translate(7.112 98.968)"><path class="e" d="M656.481,638.878h-38.67a.249.249,0,0,1,0-.5h38.67a.249.249,0,0,1,0,.5Z" transform="translate(-617.563 -638.381)"/></g><g transform="translate(14.476 1.07)"><path class="e" d="M654.9,262.459a4.154,4.154,0,0,1-1.719-.345,6.141,6.141,0,0,1-2.575-2.961c-.107-.194-.214-.387-.322-.576-2.085-3.63-3.042-7.849-3.1-13.678a.249.249,0,0,1,.246-.251h0a.249.249,0,0,1,.249.246c.06,5.74,1,9.883,3.037,13.436.11.191.218.387.327.584a5.785,5.785,0,0,0,2.344,2.747c1.417.638,3.141.142,4.484-.36a34.4,34.4,0,0,0,13.386-9.086.248.248,0,1,1,.368.334,34.884,34.884,0,0,1-13.581,9.218A9.234,9.234,0,0,1,654.9,262.459Z" transform="translate(-647.181 -244.648)"/></g><g transform="translate(16.951 41.576)"><path class="e" d="M657.382,412.1a.249.249,0,0,1-.082-.484,117.4,117.4,0,0,1,14.584-4.06.249.249,0,1,1,.1.487,116.962,116.962,0,0,0-14.522,4.043A.25.25,0,0,1,657.382,412.1Z" transform="translate(-657.133 -407.556)"/></g><g transform="translate(23.158 45.944)"><path class="e" d="M691.139,425.97l-.036,0a35.015,35.015,0,0,0-8.729-.133.249.249,0,1,1-.054-.495,35.585,35.585,0,0,1,8.854.135.249.249,0,0,1-.035.5Z" transform="translate(-682.098 -425.127)"/></g></g><g transform="translate(94.998 0)"><g transform="translate(0 30.455)"><path class="f" d="M657.526,206.18c1.06,16.36,7.808,15.477,19.093,3.965a47.173,47.173,0,0,1,.6-20.173c-4.274-.218-7.687.522-11.815-.606C664.406,195.377,661.132,203.32,657.526,206.18Z" transform="translate(-657.526 -189.366)"/><g transform="translate(4.393)"><path class="d" d="M682.774,199.314c3.946-1.48,5.884-5.369,6.468-9.379-3.708-.05-6.847.447-10.565-.568a40.638,40.638,0,0,1-3.484,10.7A16.938,16.938,0,0,0,682.774,199.314Z" transform="translate(-675.193 -189.366)"/></g></g><g transform="translate(0.127)"><g transform="translate(0.5)"><g transform="translate(0 8.109)"><path class="f" d="M664.614,101.52a11.16,11.16,0,0,0-2.535,5.185c-.242.9-.1,2.245-.328,3.168a30.424,30.424,0,0,0-1.111,3.055c-.828,4.216-.921,7.857.6,11.806a7.369,7.369,0,0,0,3.175,4.036,7.725,7.725,0,0,0,5.326.308,17.9,17.9,0,0,0,13.708-19.37,11.538,11.538,0,0,0-3.529-7.55c-2.231-1.932-5.316-2.551-8.266-2.653C669.142,99.419,666.4,99.754,664.614,101.52Z" transform="translate(-660.049 -99.493)"/></g><g transform="translate(1.968 15.331)"><path class="g" d="M667.962,130.246a3.565,3.565,0,0,1,1.7-.907,2.423,2.423,0,0,1,2.264.4l.464-.286a3.585,3.585,0,0,0-2.5-.871,3.848,3.848,0,0,0-1.855,1.1Z" transform="translate(-667.962 -128.54)"/><g transform="translate(9.373 1.779)"><path class="g" d="M708.7,135.827a3.778,3.778,0,0,1,1.952,1.563,11.253,11.253,0,0,1,1.087,2.3l-.436.216a4.464,4.464,0,0,0-5.517-3.144q-.066-.311-.132-.622A4.909,4.909,0,0,1,708.7,135.827Z" transform="translate(-705.659 -135.695)"/></g><g transform="translate(0.987 3.153)"><path class="d" d="M673.335,141.35a.722.722,0,0,1,.061.641q-.143.641-.3,1.28c-.287-.3-.692-.2-1.15-.2a1.86,1.86,0,0,1,.54-1.587.9.9,0,0,1,.4-.245A.454.454,0,0,1,673.335,141.35Z" transform="translate(-671.932 -141.22)"/></g><g transform="translate(9.51 5.007)"><path class="d" d="M706.937,148.947a.978.978,0,0,1,.424-.255.462.462,0,0,1,.458.127.693.693,0,0,1,.086.534,8.137,8.137,0,0,1-.329,1.5,2.162,2.162,0,0,0-1.366-.474A2.344,2.344,0,0,1,706.937,148.947Z" transform="translate(-706.21 -148.678)"/></g><g transform="translate(1.507 1.557)"><path class="d" d="M674.211,141.992a.184.184,0,0,1-.12-.044.187.187,0,0,1-.023-.263,14.957,14.957,0,0,0,2.175-3.07,4.867,4.867,0,0,0,.4-3.568.186.186,0,1,1,.355-.115,5.234,5.234,0,0,1-.416,3.845,15.241,15.241,0,0,1-2.226,3.15A.187.187,0,0,1,674.211,141.992Z" transform="translate(-674.025 -134.803)"/></g></g><g transform="translate(0.048 21.625)"><path class="d" d="M676.763,165.058a8.189,8.189,0,0,1-5.845,1.975,11.355,11.355,0,0,1-8.295-3.633,9.126,9.126,0,0,1-1.965-8.744c2.016.222,4.053-.88,6.079-.8,2.23.09,4.091,1.623,5.984,2.805a21.466,21.466,0,0,0,6.73,2.748C678.9,161.45,678.284,163.593,676.763,165.058Z" transform="translate(-660.241 -153.854)"/></g><g transform="translate(12.718)"><path class="g" d="M711.2,71.123c.364-2.212,2.678-3.573,4.876-4.015a11.217,11.217,0,0,1,9.484,2.351,9.239,9.239,0,0,1,2.919,9.146,7.874,7.874,0,0,1-7.44,5.742" transform="translate(-711.199 -66.881)"/></g><g transform="translate(13.77 2.387)"><path class="d" d="M715.428,77.174a9.891,9.891,0,0,1,12.837,13,18.444,18.444,0,0,0-4.133-8.887A11.888,11.888,0,0,0,715.428,77.174Z" transform="translate(-715.428 -76.483)"/></g><g transform="translate(1.626 3.214)"><path class="g" d="M669.775,83.458a7.927,7.927,0,0,0-2.829,8.66,8.831,8.831,0,0,1,3.459-4.3,6.008,6.008,0,0,1,5.378-.527c.592.253,1.136.618,1.749.815a22.178,22.178,0,0,0,2.617.373,7.046,7.046,0,0,1,4.665,4.077,14.51,14.51,0,0,1,1.226,7.582,31.757,31.757,0,0,1-1.809,8.018c5.208-1.1,6.785-6.486,8.081-10.841,1.366-4.591,1.053-10.051-2.322-13.451a13.611,13.611,0,0,0-5.912-3.273,17.489,17.489,0,0,0-8.925-.372,12.7,12.7,0,0,0-7.408,4.824" transform="translate(-666.59 -79.807)"/></g><g transform="translate(2.137 8.988)"><path class="d" d="M688.1,111.52c.464,1.043,1.218,1.948,1.6,3.024a6.027,6.027,0,0,1-.109,3.947,12.387,12.387,0,0,1-2.016,3.462,24.749,24.749,0,0,0-.784-10.043,11.656,11.656,0,0,0-1.763-3.812,5.709,5.709,0,0,0-3.447-2.267,20.186,20.186,0,0,1-3.164-.349c-.586-.2-1.1-.579-1.664-.832a5.36,5.36,0,0,0-4.781.414,9.291,9.291,0,0,0-3.327,3.628,9.984,9.984,0,0,1,.367-2.271,3.369,3.369,0,0,1,1.314-1.838,5.017,5.017,0,0,1,1.479-.547l3.353-.853a2.356,2.356,0,0,1,1.461-.054c.528.217.82.775,1.259,1.14a3.107,3.107,0,0,0,2.2.549c.774-.051,1.538-.235,2.313-.234a4.953,4.953,0,0,1,4.208,2.446C687.385,108.4,687.457,110.075,688.1,111.52Z" transform="translate(-668.642 -103.031)"/></g><g transform="translate(18.824 23.204)"><path class="f" d="M737.14,163.163c.294-1.17,1.562-2.095,2.53-2.816a1.2,1.2,0,0,1,1.409.241,1.811,1.811,0,0,1,.253,1.7c-.564,1.27-1.443,1.8-2.008,3.069a12.359,12.359,0,0,1-1.094,2.092,2.7,2.7,0,0,1-1.085.986,1.292,1.292,0,0,1-1.389-.178" transform="translate(-735.756 -160.203)"/></g></g><g transform="translate(0 21.977)"><path class="e" d="M661.181,169.9a6.878,6.878,0,0,0,4.268,1.494,14.171,14.171,0,0,0,4.527-.75,10.1,10.1,0,0,0,4.166-2.175c1.675-1.626,2.253-4.043,2.756-6.322a60.7,60.7,0,0,1-6.879-4.116c-1.707-1.181-3.46-2.493-5.523-2.722-2.183-.242-4.286.774-6.246,1.763a18.958,18.958,0,0,0,.159,6.421C658.774,165.841,659.367,168.356,661.181,169.9Z" transform="translate(-658.036 -155.269)"/><g transform="translate(0.808 0.621)"><path class="h" d="M661.286,159.232c1.685-1.643,4.407-1.795,6.619-.993a18.97,18.97,0,0,1,5.8,3.943,28.128,28.128,0,0,0-5.916-2.986A9.458,9.458,0,0,0,661.286,159.232Z" transform="translate(-661.286 -157.768)"/></g><g transform="translate(1.017 3.927)"><path class="h" d="M664.223,171.284l11.993,4.282a45.609,45.609,0,0,1-10.977-1.658c-.882-.226-2.233-.375-2.792-1.095a1.2,1.2,0,0,1-.186-1.343C662.651,170.875,663.553,171.045,664.223,171.284Z" transform="translate(-662.126 -171.064)"/></g><g transform="translate(1.878 10.794)"><path class="h" d="M665.587,198.682a17.4,17.4,0,0,0,11.1,2.127,8.913,8.913,0,0,1-11.1-2.127Z" transform="translate(-665.587 -198.682)"/></g></g></g><g transform="translate(18.245 23.315)"><path class="d" d="M731.154,166.935a.249.249,0,0,1-.189-.411,26.116,26.116,0,0,0,2.066-2.867,26.571,26.571,0,0,1,2.106-2.92.249.249,0,1,1,.377.324,26.259,26.259,0,0,0-2.066,2.867,26.6,26.6,0,0,1-2.105,2.92A.247.247,0,0,1,731.154,166.935Z" transform="translate(-730.905 -160.651)"/></g><g transform="translate(16.034 29.81)"><path class="d" d="M722.263,191.772a.249.249,0,0,1-.135-.458,25.329,25.329,0,0,0,5.219-4.456.249.249,0,0,1,.371.331,25.871,25.871,0,0,1-5.321,4.544A.25.25,0,0,1,722.263,191.772Z" transform="translate(-722.014 -186.774)"/></g></g><g transform="translate(63.569 41.789)"><path class="e" d="M539.4,277.076c2.923-.691,4.777-3.512,6.149-6.183,3.535-6.88,5.895-14.291,8.238-21.662.84-2.641,1.69-5.38,1.374-8.134s-2.135-5.538-4.858-6.059a6.692,6.692,0,0,0-5.924,2.332,19.75,19.75,0,0,0-3.294,5.737l-7.592,17.533c-1.3,2.993-2.619,6.144-2.333,9.392a8.393,8.393,0,0,0,2.553,5.44A6.425,6.425,0,0,0,539.4,277.076Z" transform="translate(-531.12 -234.951)"/><g transform="translate(4.915 26.251)"><path class="d" d="M558.147,341.933a7.527,7.527,0,0,0-3.6-1.385,5.16,5.16,0,0,0-3.662,1.035,13.2,13.2,0,0,1,10.319,4.762A7.055,7.055,0,0,0,558.147,341.933Z" transform="translate(-550.885 -340.526)"/></g><g transform="translate(3.62 1.271)"><path class="h" d="M553.637,245.955c-3.068,6.3-5.517,12.878-7.96,19.445l2.074-.3a56.421,56.421,0,0,1,11.429-25.035C556.475,240.743,554.858,243.448,553.637,245.955Z" transform="translate(-545.677 -240.062)"/></g></g><g transform="translate(75.603 40.882)"><path class="e" d="M580.707,380.42h18.816c-5.466-48.584-8.311-102.1,3.868-149.116-4.544.152-5.763.655-9.4.655a23.746,23.746,0,0,0-5.094.606,4.071,4.071,0,0,0-3.085,3.35l-.956,2.948c-.158,27.145-7.027,52.246-4.945,79.287C581.511,338.917,582.424,359.7,580.707,380.42Z" transform="translate(-579.52 -231.304)"/><g transform="translate(1.701 42.638)"><path class="d" d="M593.387,406.048a1.712,1.712,0,0,0-1.024-1.811l-2.334-1.448a10.351,10.351,0,0,1-2.91,3.833,68.117,68.117,0,0,0-.758,7.206,19.364,19.364,0,0,0,1.756,2.088,36.715,36.715,0,0,0,5.793,4.672Q593.648,413.318,593.387,406.048Z" transform="translate(-586.361 -402.788)"/></g><g transform="translate(7.78 39.337)"><path class="d" d="M616.941,484.84a.248.248,0,0,1-.248-.233l-5.882-93.2a.248.248,0,0,1,.2-.259c.854-.174,2.132-.5,3.368-.814s2.521-.641,3.386-.818a.249.249,0,1,1,.1.487c-.853.174-2.129.5-3.363.813-1.143.291-2.323.591-3.179.774l5.868,92.984a.249.249,0,0,1-.233.264Z" transform="translate(-610.811 -389.514)"/></g><g transform="translate(8.243 0.289)"><path class="d" d="M621.854,272.591h-.008a18.47,18.47,0,0,1-7.215-2.224c-.631-.3-1.226-.578-1.809-.824a.248.248,0,0,1-.135-.318c4.572-11.96,8.665-24.267,12.165-36.578a.245.245,0,0,1,.307-.171.248.248,0,0,1,.171.307c-3.481,12.249-7.55,24.493-12.093,36.4.521.226,1.05.475,1.607.738a18.088,18.088,0,0,0,7.018,2.177.249.249,0,0,1-.008.5Z" transform="translate(-612.671 -232.464)"/></g><g transform="translate(3.778 4.274)"><path class="d" d="M594.964,279.68a.254.254,0,0,1-.087-.015.249.249,0,0,1-.146-.32,99.724,99.724,0,0,0,6.178-30.611.249.249,0,0,1,.249-.238h.011a.249.249,0,0,1,.238.259,100.234,100.234,0,0,1-6.209,30.764A.249.249,0,0,1,594.964,279.68Z" transform="translate(-594.716 -248.495)"/></g><g transform="translate(2.484 90.517)"><path class="d" d="M594.025,596.143a32.369,32.369,0,0,1-4.3-.3.249.249,0,0,1,.065-.494,31.416,31.416,0,0,0,8.143.058.249.249,0,0,1,.055.494A35.106,35.106,0,0,1,594.025,596.143Z" transform="translate(-589.51 -595.349)"/></g><g transform="translate(2.073 91.285)"><path class="h" d="M593.026,603.093a1.95,1.95,0,0,0,1.422-.81,8.091,8.091,0,0,0,1.81-3.494,36.662,36.662,0,0,1-8.4-.348,43.093,43.093,0,0,0,3.906,3.971A2.147,2.147,0,0,0,593.026,603.093Z" transform="translate(-587.856 -598.441)"/></g></g><g transform="translate(110.38 45.099)"><g transform="translate(1.916)"><path class="e" d="M729.835,393.136h26.873c-2.1-46.348-11.078-91.159-8.212-137.456-7.054-1.6-11.8-3.329-20.438-7.418-.485,42.928-2.014,88.035.221,130.963C728.671,383.93,729.2,388.556,729.835,393.136Z" transform="translate(-727.097 -248.261)"/></g><g transform="translate(0 42.356)"><path class="d" d="M740.51,418.612a44.235,44.235,0,0,1-17.895,34.156,13.567,13.567,0,0,1-3.226-3.808A72.336,72.336,0,0,0,740.51,418.612Z" transform="translate(-719.389 -418.612)"/></g><g transform="translate(4.264 41.811)"><path class="d" d="M739.258,491.443a.248.248,0,0,1-.249-.246,591.317,591.317,0,0,1,3.825-73.111l-6.094-1.175a.249.249,0,0,1,.094-.488l6.321,1.219a.249.249,0,0,1,.2.273,590.66,590.66,0,0,0-3.848,73.279.249.249,0,0,1-.246.251Z" transform="translate(-736.538 -416.417)"/></g><g transform="translate(1.133 1.014)"><path class="d" d="M724.194,293.582a.249.249,0,0,1-.032-.5l10.429-1.377a320.208,320.208,0,0,1-6.547-39.1.249.249,0,0,1,.22-.274.252.252,0,0,1,.274.22,319.389,319.389,0,0,0,6.6,39.3.245.245,0,0,1-.037.2.249.249,0,0,1-.172.105l-10.7,1.413Z" transform="translate(-723.945 -252.338)"/></g><g transform="translate(7.402 84.067)"><path class="d" d="M752.316,587.867q-1.461,0-2.919-.059a.249.249,0,0,1-.238-.259.259.259,0,0,1,.259-.238,71.663,71.663,0,0,0,14.808-.938.249.249,0,0,1,.083.49A72.114,72.114,0,0,1,752.316,587.867Z" transform="translate(-749.158 -586.368)"/></g><g transform="translate(7.812 84.864)"><path class="h" d="M750.809,591.155q7.274-.468,14.489-1.581c-1.218,1.862-2.687,3.76-4.808,4.434a7.636,7.636,0,0,1-5.08-.432A46.567,46.567,0,0,1,750.809,591.155Z" transform="translate(-750.809 -589.574)"/></g></g><g transform="translate(43.696 82.166)"><path class="f" d="M537.362,470.507a44.541,44.541,0,0,1-.133-7.809c.144-2.028.4-4.18-.5-6-1.009-2.023-3.193-3.114-5.13-4.279a46.015,46.015,0,0,1-3.969-2.728h0a191.736,191.736,0,0,0-63.07-50.195c-3.289-1.663-7.376-3.212-10.462-1.2a7.3,7.3,0,0,0-2.9,6.273c.078,4.851,3.518,9.107,7.621,11.7s8.868,3.872,13.434,5.511c19.895,7.142,33.694,19.03,49.668,32.84a4.641,4.641,0,0,0,.16,2.306c.447,1.139.924,1.524,1.447,2.631.419.884.677,1.478,1.138,2.34a16.5,16.5,0,0,0,2.213,2.756,4.986,4.986,0,0,1,1.43,3.156,2.424,2.424,0,0,0,1.091-2.875,19.171,19.171,0,0,0-1.426-3.034,3.174,3.174,0,0,1,.04-3.194,11.739,11.739,0,0,1,3.185,1.755,10.17,10.17,0,0,1,2.793,5.352c.479,1.872.881,3.916,2.308,5.218.245.224.623.423.886.222C537.4,471.091,537.39,470.774,537.362,470.507Z" transform="translate(-451.195 -397.343)"/><g transform="translate(50.707 28.603)"><path class="d" d="M671.084,527.068a20.225,20.225,0,0,0,.022-2.537q-6.315-6.37-13.19-12.151a8.66,8.66,0,0,0-2.473,3.1,3.6,3.6,0,0,0,.637,3.953c.359.326.818.57,1.042,1a2.361,2.361,0,0,1,.106,1.388q-.176,1.4-.352,2.8a3.733,3.733,0,0,0,.009,1.362c2.787,2.094,7.5,6.038,10.21,8.252.44.019,1.06-.631,1.49-1.262A13.288,13.288,0,0,0,671.084,527.068Z" transform="translate(-655.133 -512.38)"/></g><g transform="translate(40.97 29.19)"><path class="d" d="M616.218,515.634a.249.249,0,0,1-.026-.5l3.684-.4a.249.249,0,0,1,.053.494l-3.684.4Z" transform="translate(-615.97 -514.74)"/></g></g><g transform="translate(10.461 108.3)"><path class="g" d="M349.165,503.418a49.9,49.9,0,0,0-25.85,1.685c-2.109.72-4.351,1.749-5.3,3.767-.853,1.818-.423,3.95.023,5.907l9.761,42.86,4.862,21.347c.621,2.728,1.4,5.7,3.673,7.329,2.044,1.465,4.76,1.448,7.274,1.373l28.712-.859q-2.279-37.177-4.558-74.354a11.882,11.882,0,0,0-1.174-5.334,7.989,7.989,0,0,0-5.438-3.5,23.685,23.685,0,0,0-6.642-.054" transform="translate(-317.527 -502.448)"/></g><g transform="translate(0 81.782)"><g transform="translate(42.906)"><path class="g" d="M451.184,396.614a9.894,9.894,0,0,1,4.826-.816,7,7,0,0,1,4.057.831,6.084,6.084,0,0,1,1.8,2.358,24.115,24.115,0,0,1,1.157,18.761,14.6,14.6,0,0,1-15.009-14.163C447.941,400.9,448.832,397.911,451.184,396.614Z" transform="translate(-448.016 -395.798)"/></g><g transform="translate(30.303 74.656)"><path class="d" d="M501.566,727.557c-1.14-7.423-7.368-15.708-13.852-19.5-5.8-3.386-12.871-3.471-19.583-3.462-6.644.009-8.274.742-14.917.751-3.212,0-6.384.453-9.121-1.228-2.231-1.37-2.573-4.353-3.383-8.068H399.868a68.116,68.116,0,0,0-2.06,26.468c.649,5.4,2.181,11.105,6.353,14.591,3.759,3.14,8.93,3.872,13.816,4.231a145.666,145.666,0,0,0,28.5-.7c5.193-.641,10.552-1.55,15.579-.1a10.685,10.685,0,0,1,7.974,9.536h32.158A84.351,84.351,0,0,0,501.566,727.557Z" transform="translate(-397.328 -696.054)"/></g><g transform="translate(21.695 0.099)"><path class="d" d="M369.994,450.911a95.671,95.671,0,0,1,3.084,29.406h46.334c-2.682-9.562-7.03-7.809-6.7-28.785.1-6.65,1.132-17.785-.385-24.26-2.636-11.255-10.708-14.992-15.5-25.512-.993-2.179-1.733-2.792-5.391-4.621-3.176-1.588-8.4-.875-11.841,0-8.365,2.126-12.987,6.052-15.588,14.281-2.039,6.453-1.43,13.47.143,20.052S368.229,444.378,369.994,450.911Z" transform="translate(-362.711 -396.196)"/></g><g transform="translate(32.973 28.48)"><path class="i" d="M415.4,581.887c-4.21-5.711-3.565-13.552-3-20.471l.053-.646c1.418-17.4-1.389-34.409-4.387-50.338l.489-.092c3,15.963,5.817,33.009,4.394,50.471l-.053.646c-.561,6.831-1.2,14.575,2.9,20.134Z" transform="translate(-408.069 -510.34)"/></g><g transform="translate(0 5.871)"><g transform="translate(0 0.466)"><path class="f" d="M300.944,425.653c-1.014,1.019-2.929,4.267-3.892,5.334-7.766,8.606-16.781,17.418-20.775,28.58a12.688,12.688,0,0,0-.084,8.739,11.234,11.234,0,0,0,3.62,4.19,75.209,75.209,0,0,0,20.169,12.363c3.09,1.245,6.56,2.213,10.47,3.55,2.664.827,4.9,2.573,7.341,4.353a15.4,15.4,0,0,0,4.034,1.754c1.184.175.877-.921,2.631-.921,1.146,0,.786-1.409,1.929-1.491a6.652,6.652,0,0,0,2.324-.526c.439-.244.725-1.154,1.052-1.535.431-.5,2.314-.3,2.894-.614s.5-.955.315-1.588a1.683,1.683,0,0,0-.49-.692c-1.943-1.9-5.778-2.516-8.44-3.059.152-.492,1.532-1.23,2.038-1.326s1.14.614,2.894-.219c.465-.221,1.241-.907.877-1.272a15.549,15.549,0,0,0-3.069-.833c-5.438.351-6.534-.307-12.059,1.053-6.387-4.511-9.064-7.012-16.181-12.234-2.768-2.031-4.258-2.933-6.446-4.473-.08-.056-2.812-1.918-2.894-1.973,1.455-2.425,4.372-5.3,6.183-7.5,3.8-4.6,5.151-7.676,10.129-10.392,4.624-2.523,9.489-5.646,11.2-10.627a8.994,8.994,0,0,0-1.614-8.572c-1.967-2.319-4.581-4.879-7.58-4.372C304.251,421.9,303.286,423.3,300.944,425.653Z" transform="translate(-275.456 -421.286)"/></g><g transform="translate(23.906)"><path class="g" d="M373.212,423.955a17.482,17.482,0,0,0-1.61,2.117,12.081,12.081,0,0,1,9.869.85c4.744,2.328,3.075,11.005-.426,15.276,2.642.437,6.841-1.184,8.576-9.255.665-3.093.367-6.5-1.679-8.916s-4.765-5.075-7.885-4.548C376.652,420.054,375.648,421.507,373.212,423.955Z" transform="translate(-371.602 -419.412)"/></g></g><g transform="translate(38.444 94.978)"><path class="i" d="M430.4,792.138l-.328-.374c5.606-4.922,11.522-9.626,17.583-13.979l.29.4C441.9,782.533,435.993,787.226,430.4,792.138Z" transform="translate(-430.07 -777.785)"/></g><g transform="translate(86.867 110.29)"><path class="i" d="M645.082,857.4a25.052,25.052,0,0,0-20.259-17.538l.066-.493a25.563,25.563,0,0,1,20.671,17.9Z" transform="translate(-624.823 -839.369)"/></g><g transform="translate(1.397 49.325)"><path class="d" d="M281.323,597.7h0a.249.249,0,0,1-.248-.25,9.4,9.4,0,0,1,.541-3.108.249.249,0,1,1,.469.166,8.9,8.9,0,0,0-.512,2.943A.249.249,0,0,1,281.323,597.7Z" transform="translate(-281.074 -594.177)"/></g></g><g transform="translate(32.266 194.191)"><path class="g" d="M413.569,862.8a21.68,21.68,0,0,0,3.487,1.355h59.753a8.893,8.893,0,0,0-.185-8.912,14.08,14.08,0,0,0-8.585-5.955,41.808,41.808,0,0,0-10.635-1l-51.769-.408C403.865,853.752,408.084,860.079,413.569,862.8Z" transform="translate(-405.226 -847.889)"/></g><g transform="translate(16.31 39.659)"><g transform="translate(12.419 23.119)"><path class="f" d="M413.234,340.734a11.756,11.756,0,0,0-3.322-1.547c-2.915-6.46-2.638-11.8-3.014-19.82a38.6,38.6,0,0,1-14.483,1.769c2.146,6.981-.333,15.389-1.148,22.808a4.5,4.5,0,0,0-.269.426c.075-.027.152-.046.228-.072l0,.023c.909-.235,1.832-.5,2.762-.781a24.282,24.282,0,0,1,20.725,5.475,3.8,3.8,0,0,0,1.082.773,1.17,1.17,0,0,0,1.249-.177,1.543,1.543,0,0,0,.336-1A9.177,9.177,0,0,0,413.234,340.734Z" transform="translate(-390.998 -319.368)"/></g><g transform="translate(6.615 1.42)"><path class="f" d="M397.613,255.786c.083-4.313.334-5.453-1.285-9.423-.457-1.121-1.605-1.88-2.227-2.913-.635-1.055-.338-2.767-.942-3.855-4.711-8.481-13.346-8.706-19.5-5.865a10.462,10.462,0,0,0-4.971,4.544,10.85,10.85,0,0,0-.666,7.494c1.311,5.371,5.724,9.611,10.8,11.808a32.763,32.763,0,0,0,15.237,2.579c.961-.039,3.112-.4,3.607-1.224C397.923,258.5,397.6,256.286,397.613,255.786Z" transform="translate(-367.657 -232.096)"/><g transform="translate(22.082 14.513)"><path class="d" d="M459.293,303.256a1.235,1.235,0,0,0,.594.138,16.109,16.109,0,0,0,4.475-.382l-1.432-12.545-6.464,3.242c1.709,2.444,2.084,5.55,2.387,8.517A1.3,1.3,0,0,0,459.293,303.256Z" transform="translate(-456.466 -290.466)"/></g><g transform="translate(14.407 6.054)"><path class="d" d="M432.515,263.218a7.97,7.97,0,0,0-2.25,2.145,4.782,4.782,0,0,0-.367,2.333,26.585,26.585,0,0,0,1.793,8.912,20.078,20.078,0,0,1-6.071-15.179,16.248,16.248,0,0,0,9.592-4.983A7.824,7.824,0,0,1,432.515,263.218Z" transform="translate(-425.6 -256.446)"/></g></g><g transform="translate(20.128 15.658)"><g transform="translate(0 1.638)"><g transform="translate(0 0)"><rect class="d" width="0.497" height="11.189" transform="matrix(0.222, -0.975, 0.975, 0.222, 0, 0.485)"/></g><g transform="translate(1.976 10.341)"><path class="d" d="M429.985,339.406l-.035-.5a99.009,99.009,0,0,0,10.874-1.371l.089.489A99.555,99.555,0,0,1,429.985,339.406Z" transform="translate(-429.95 -337.539)"/></g></g><g transform="translate(9.916)"><path class="e" d="M467.062,289.367c-.426.054-1.122.744-1.467,1l-3.711,2.745,1.984,8.791c1.747.048,3.34.292,5.087.34-.119-3.051,0-5.923-.119-8.974a6.732,6.732,0,0,0-.487-2.349C468.043,290.292,467.754,289.278,467.062,289.367Z" transform="translate(-461.884 -289.361)"/></g><g transform="translate(10.634 0.62)"><path class="h" d="M468.842,292.029a28.618,28.618,0,0,0-4.072,2.977l3.456-1.7c.293-.144.586-.289.877-.436a1.264,1.264,0,0,0,.495-.364.439.439,0,0,0-.022-.566C469.375,291.765,469.069,291.893,468.842,292.029Z" transform="translate(-464.77 -291.854)"/></g><g transform="translate(14.529 3.05)"><path class="h" d="M481.9,301.628a1.836,1.836,0,0,0-1.465.809A1.29,1.29,0,0,0,481.9,301.628Z" transform="translate(-480.436 -301.628)"/></g></g><g transform="translate(0 0.995)"><path class="g" d="M363.512,233.362a6.62,6.62,0,0,0-3.812-2.5c-4.046-1.135-11.926-.227-15.143,2.477s-1.851,7.053-2.78,11.152a38.83,38.83,0,0,0-.414,12.543c.265,2.576.765,5.347,2.654,7.118a7.887,7.887,0,0,0,5.491,1.874,23.408,23.408,0,0,0,5.834-1.057c5.131-1.386,13.787-3.985,17.286-7.987a6.352,6.352,0,0,1-6.311-4.226c-1.407-5.014-1.565-8.785-1.712-13.99C364.55,236.9,364.544,234.915,363.512,233.362Z" transform="translate(-341.052 -230.386)"/></g><g transform="translate(2.453 8.045)"><path class="d" d="M357.117,286.022a5.546,5.546,0,0,1-4.363-2.523c-2.039-2.858-1.968-6.568-1.7-10.437l.972-14.088a.249.249,0,1,1,.5.035l-.972,14.088c-.261,3.776-.334,7.39,1.61,10.114a5.018,5.018,0,0,0,4.025,2.314.257.257,0,0,1,.253.244.249.249,0,0,1-.244.253Z" transform="translate(-350.917 -258.743)"/></g><g transform="translate(11.032 13.04)"><path class="d" d="M395.5,299.767a.249.249,0,0,1-.137-.042c-6.742-4.5-10-11.25-9.947-20.647a.249.249,0,0,1,.249-.247h0a.249.249,0,0,1,.248.25c-.048,9.217,3.133,15.834,9.726,20.23a.249.249,0,0,1-.138.456Z" transform="translate(-385.42 -278.831)"/></g><g transform="translate(8.894 10.736)"><path class="d" d="M379.607,284.556a.248.248,0,0,1-.22-.133,22.331,22.331,0,0,1-2.154-14.657.249.249,0,1,1,.488.1,21.83,21.83,0,0,0,2.106,14.33.248.248,0,0,1-.22.365Z" transform="translate(-376.821 -269.565)"/></g><g transform="translate(17.817)"><path class="d" d="M415.645,240.367a30.19,30.19,0,0,0-2.935-12.8c2.344-.337,3.755-1.285,6.133-1.168C420.269,230.956,419.636,236.872,415.645,240.367Z" transform="translate(-412.71 -226.386)"/></g><g transform="translate(18.182 0.753)"><path class="g" d="M419.317,229.47c2.047-.4,6.039,1.361,6.963,3.23a6.736,6.736,0,0,1-.261,6.019,10.766,10.766,0,0,1-4.457,4.26c-1.829,1-5.377,1.06-7.384,1.625C417.889,240.435,418.78,234.879,419.317,229.47Z" transform="translate(-414.177 -229.413)"/></g><g transform="translate(21.752 28.038)"><path class="d" d="M433.452,342.354c-1.975,0-3.283-1.017-4.853-2.791a.249.249,0,0,1,.372-.33c1.737,1.963,3.048,2.9,5.384,2.554a.249.249,0,1,1,.072.492A6.677,6.677,0,0,1,433.452,342.354Z" transform="translate(-428.536 -339.149)"/></g></g><g transform="translate(32.761 193.991)"><path class="d" d="M473.669,862.044a.248.248,0,0,1-.249-.244,5.929,5.929,0,0,0-3.379-4.838,15.42,15.42,0,0,0-6.152-1.391,146.415,146.415,0,0,0-19.083.342c-9.346.575-19.012,1.17-28.253-1.026a17.393,17.393,0,0,1-5.852-2.319,7.742,7.742,0,0,1-3.485-5.2.249.249,0,1,1,.493-.066,7.248,7.248,0,0,0,3.273,4.855,16.954,16.954,0,0,0,5.686,2.247c9.168,2.177,18.8,1.585,28.107,1.013a146.846,146.846,0,0,1,19.148-.342,15.849,15.849,0,0,1,6.349,1.447,6.429,6.429,0,0,1,3.644,5.269.249.249,0,0,1-.244.253Z" transform="translate(-407.215 -847.086)"/></g><g transform="translate(94.544 51.898)"><g transform="translate(8.906)"><path class="e" d="M725.776,278.6c-1.255-2.116-3.53-4.059-6.319-2.329A6.21,6.21,0,0,0,717.4,278.5c-3.913,6.8-5.231,14.657-7.612,22.094a80.271,80.271,0,0,1-16.365,28.643,7.528,7.528,0,0,0,.915,10.883l.121.1a7.534,7.534,0,0,0,10.339-.894,109.2,109.2,0,0,0,13.367-18.361,72.526,72.526,0,0,0,9.644-29.71C728.163,286.922,727.988,282.335,725.776,278.6Z" transform="translate(-691.517 -275.608)"/></g><g transform="translate(9.741 54.748)"><path class="d" d="M694.971,498.443a6.382,6.382,0,0,0,8.424,7.136,3.665,3.665,0,0,0,2.645-2.994,4.438,4.438,0,0,0-1.836-3.239,18.208,18.208,0,0,0-4.719-3.036,3.734,3.734,0,0,0-2.827-.356A3.163,3.163,0,0,0,694.971,498.443Z" transform="translate(-694.877 -495.797)"/></g><g transform="translate(14.811 3.589)"><path class="d" d="M715.515,334.5a.249.249,0,0,1-.2-.4,84.558,84.558,0,0,0,13.144-25.485c.369-1.219.721-2.478,1.061-3.7,1.444-5.169,2.937-10.515,6.262-14.786a.249.249,0,0,1,.392.305c-3.264,4.194-4.744,9.491-6.175,14.614-.341,1.22-.694,2.482-1.064,3.706a85.065,85.065,0,0,1-13.22,25.635A.248.248,0,0,1,715.515,334.5Z" transform="translate(-715.267 -290.041)"/></g><g transform="translate(0 55.609)"><path class="f" d="M669.036,499.26c-.212.291-.4.635-.606.909a5.715,5.715,0,0,1-4.067,2.42c-2.111.338-4.494-.219-6.247,1a7.2,7.2,0,0,0-2.032,2.719,1.966,1.966,0,0,0-.318,1.546c.23.609.881.626,1.505.44a5.016,5.016,0,0,0,1.717-1.161c.481-.438.971-1.123,1.616-1.212,1.136-.157,1.159,1.747,1.414,2.02-1.452,2.125-3.135,3.795-3.844,6.268a3.742,3.742,0,0,0-.2,1.486,1.337,1.337,0,0,0,.813,1.132,25.486,25.486,0,0,1,2.323-2.424c.1.158,1.565-1.515.656.656-1.491.96-1.969,3.282-1.06,3.737.808-.152,2.789-2.843,3.585-2.929.567.489-.97,2.108-1.313,2.777s-.63,1.557.081,1.8a1.667,1.667,0,0,0,1.489-.533c.949-.781,2.519-2.309,3.378-3.186.125.658-1.074,1.927-1.454,2.478s-.541,1.466.058,1.765c.443.221.96-.086,1.339-.406a10.665,10.665,0,0,0,3.722-7.661,20.485,20.485,0,0,1,.154-4.078c.483-2.006,1.635-3.114,3.314-4.381A8.391,8.391,0,0,0,669.036,499.26Z" transform="translate(-655.699 -499.26)"/></g><g transform="translate(11.367 7.323)"><path class="h" d="M704.39,352.47c4.007-7.677,8.8-14.926,12.712-22.653s6.957-16.1,7.1-24.758c-2.633,9.733-5.295,19.543-9.83,28.548a74.9,74.9,0,0,1-12.957,18.271Z" transform="translate(-701.417 -305.059)"/></g></g><g transform="translate(64.166 69.519)"><path class="e" d="M543.863,347.592a7.719,7.719,0,0,0-7.368-.318,5.981,5.981,0,0,0-2.969,4.93c-.06,2.058.951,3.981,1.978,5.766q2.312,4.02,4.916,7.861a6.166,6.166,0,0,0,1.508,1.709c1.709,1.174,4.023.429,5.944-.349,2.09-.847,4.447-1.99,4.971-4.183.36-1.508-.285-3.054-.916-4.47C550.047,354.32,547.911,349.815,543.863,347.592Z" transform="translate(-533.524 -346.478)"/><g transform="translate(7.91 9.357)"><path class="d" d="M572.591,384.113a7.959,7.959,0,0,0-7.042,9.782,2.783,2.783,0,0,0,.92,1.65c.927.683,2.232.249,3.27-.25a39.449,39.449,0,0,0,4.083-2.271,4.452,4.452,0,0,0,1.817-1.767c.557-1.245-.056-2.689-.776-3.847a6.28,6.28,0,0,0-1.526-1.8C572.7,385.137,573.38,384.044,572.591,384.113Z" transform="translate(-565.337 -384.11)"/></g><g transform="translate(2.807 0.561)"><path class="h" d="M544.821,349.4c-.074.5.435.908.927,1.034a7.656,7.656,0,0,1,1.485.32,2.4,2.4,0,0,1,1.08,2.216,12.744,12.744,0,0,0,.01,2.591c.272,1.242,1.323,2.332,1.138,3.591-.118.8-.7,1.743-.12,2.316l3.018-2.6a3.609,3.609,0,0,1-2.844-4.736.926.926,0,0,1-.893-.7,4.82,4.82,0,0,1-.12-1.217,4.129,4.129,0,0,0-1.785-3.113,1.8,1.8,0,0,0-1.067-.367A.865.865,0,0,0,544.821,349.4Z" transform="translate(-544.814 -348.733)"/></g><g transform="translate(9.225 11.827)"><g transform="translate(7.54 7.257)"><g transform="translate(3.899)"><g transform="translate(0.187 0.187)"><path class="b" d="M617.394,424.82a1.17,1.17,0,0,1,.089-.41.881.881,0,0,1,1.116-.359,1.577,1.577,0,0,1,.815.957,1.723,1.723,0,0,1,.108.831,1.018,1.018,0,0,1-.421.706,1.068,1.068,0,0,1-1.348-.293A2.015,2.015,0,0,1,617.394,424.82Z" transform="translate(-617.385 -423.981)"/></g><path class="d" d="M618.07,426.3a1.362,1.362,0,0,1-1.027-.495,2.216,2.216,0,0,1-.4-1.563,1.362,1.362,0,0,1,.106-.475,1,1,0,0,1,.926-.536,1.138,1.138,0,0,1,.429.083,1.741,1.741,0,0,1,.919,1.066,1.9,1.9,0,0,1,.118.922,1.192,1.192,0,0,1-.5.834A1.026,1.026,0,0,1,618.07,426.3Zm-.394-2.7a.632.632,0,0,0-.588.321,1.02,1.02,0,0,0-.072.345,1.86,1.86,0,0,0,.317,1.3.9.9,0,0,0,1.1.255.831.831,0,0,0,.339-.576,1.534,1.534,0,0,0-.1-.741,1.421,1.421,0,0,0-.711-.848A.764.764,0,0,0,617.676,423.6Z" transform="translate(-616.634 -423.231)"/></g><g transform="translate(0 0.991)"><g transform="translate(0.186 0.185)"><path class="b" d="M606.135,427.988l-4.172,1.522a.4.4,0,0,0-.24.519l.007.018a.4.4,0,0,0,.517.238l4.168-1.533a.4.4,0,0,0,.234-.532l0-.008A.4.4,0,0,0,606.135,427.988Z" transform="translate(-601.698 -427.964)"/></g><path class="d" d="M601.548,429.937h0a.593.593,0,0,1-.553-.385.6.6,0,0,1,.011-.471.586.586,0,0,1,.333-.306l4.172-1.522a.6.6,0,0,1,.748.329.59.59,0,0,1-.338.786l-4.168,1.533A.587.587,0,0,1,601.548,429.937Zm4.165-2.347a.209.209,0,0,0-.074.013l-4.172,1.522a.216.216,0,0,0-.129.279.226.226,0,0,0,.21.159h0a.209.209,0,0,0,.074-.013l4.168-1.533a.217.217,0,0,0,.126-.286A.219.219,0,0,0,605.713,427.59Z" transform="translate(-600.952 -427.218)"/></g></g><path class="f" d="M577.01,407.177l1.443,1a.255.255,0,0,0,.36-.072l.4-.626a3.6,3.6,0,0,0,2.049,1l.45-1.266a.779.779,0,0,0,1.118.37,1.267,1.267,0,0,0,.537-1.175,3.728,3.728,0,0,0-.4-1.29l-2.846-6.31a4.327,4.327,0,0,1,2.778,1.913c.256.571.25,1.227.472,1.812s.847,1.122,1.428.89a11.645,11.645,0,0,0-.2-3.594,4.7,4.7,0,0,0-1.988-2.909,12.8,12.8,0,0,0-2.917-.96c-1.386-.431-2.638-1.227-4.024-1.655a4.122,4.122,0,0,0-4.1.617,3.568,3.568,0,0,0-.945,2.412,9.443,9.443,0,0,0,.376,2.617c.656,2.634,1.663,5.439,3.97,6.868A2.279,2.279,0,0,0,577.01,407.177Z" transform="translate(-570.625 -394.044)"/><g transform="translate(0.919 8.141)"><g transform="translate(0.259)"><g transform="translate(7.217)"><g transform="translate(0.187 0.187)"><path class="b" d="M605.149,428.389a1.189,1.189,0,0,1,.091-.418.9.9,0,0,1,1.136-.366,1.6,1.6,0,0,1,.83.975,1.751,1.751,0,0,1,.111.847,1.035,1.035,0,0,1-.429.719,1.088,1.088,0,0,1-1.373-.3A2.051,2.051,0,0,1,605.149,428.389Z" transform="translate(-605.14 -427.535)"/></g><path class="d" d="M605.849,429.9a1.383,1.383,0,0,1-1.043-.5,2.254,2.254,0,0,1-.407-1.59,1.385,1.385,0,0,1,.108-.483,1.019,1.019,0,0,1,.94-.544,1.15,1.15,0,0,1,.436.085,1.769,1.769,0,0,1,.934,1.084,1.936,1.936,0,0,1,.12.937,1.215,1.215,0,0,1-.512.847A1.048,1.048,0,0,1,605.849,429.9Zm-.4-2.746a.648.648,0,0,0-.6.329,1.022,1.022,0,0,0-.074.354,1.89,1.89,0,0,0,.324,1.325.925.925,0,0,0,1.126.261.853.853,0,0,0,.348-.59,1.57,1.57,0,0,0-.1-.756,1.449,1.449,0,0,0-.725-.866A.775.775,0,0,0,605.447,427.158Z" transform="translate(-604.389 -426.785)"/></g><g transform="translate(0 0.942)"><g transform="translate(0.185 0.184)"><path class="b" d="M583.693,431.356l-7.134,2.6a.69.69,0,0,0-.41.888l.012.031a.689.689,0,0,0,.884.407l7.127-2.621a.69.69,0,0,0,.4-.91l-.005-.013A.69.69,0,0,0,583.693,431.356Z" transform="translate(-576.106 -431.314)"/></g><path class="d" d="M576.249,434.957h0a.88.88,0,0,1-.821-.571.891.891,0,0,1,.015-.7.869.869,0,0,1,.5-.456l7.133-2.6a.889.889,0,0,1,1.111.489.879.879,0,0,1,0,.7.868.868,0,0,1-.5.47l-7.127,2.621A.873.873,0,0,1,576.249,434.957Zm7.122-4.013a.5.5,0,0,0-.172.031l-7.134,2.6a.5.5,0,0,0-.3.648.513.513,0,0,0,.657.328l7.127-2.621a.5.5,0,0,0,.292-.664A.506.506,0,0,0,583.371,430.944Z" transform="translate(-575.363 -430.573)"/></g><g transform="translate(0.31 3.675)"><g transform="translate(0.187 0.186)"><path class="b" d="M577.361,442.315a.751.751,0,0,1,.551.677" transform="translate(-577.361 -442.315)"/></g><path class="d" d="M577.349,442.616a.187.187,0,0,1-.186-.179.561.561,0,0,0-.41-.5.186.186,0,0,1,.09-.362.934.934,0,0,1,.693.85.187.187,0,0,1-.179.194Z" transform="translate(-576.611 -441.565)"/></g><g transform="translate(2.439 2.927)"><g transform="translate(0.249 0.249)"><path class="b" d="M586.175,439.555l.227.354" transform="translate(-586.175 -439.555)"/></g><path class="d" d="M585.65,439.406a.249.249,0,0,1-.209-.114l-.227-.353a.249.249,0,0,1,.419-.269l.227.354a.248.248,0,0,1-.209.383Z" transform="translate(-585.174 -438.555)"/></g><g transform="translate(3.5 2.546)"><g transform="translate(0.249 0.248)"><path class="b" d="M590.44,438.023a.194.194,0,0,1,.148.155" transform="translate(-590.44 -438.023)"/></g><path class="d" d="M589.836,437.676a.7.7,0,0,1-.39-.455.254.254,0,0,1,.295-.192.44.44,0,0,1,.341.358.248.248,0,0,1-.205.285A.238.238,0,0,1,589.836,437.676Z" transform="translate(-589.44 -437.024)"/></g><g transform="translate(4.913 1.993)"><g transform="translate(0.249 0.248)"><path class="b" d="M596.124,435.8l.177.2" transform="translate(-596.124 -435.799)"/></g><path class="d" d="M595.549,435.5a.25.25,0,0,1-.187-.085l-.177-.2a.249.249,0,0,1,.375-.327l.177.2a.249.249,0,0,1-.187.412Z" transform="translate(-595.124 -434.8)"/></g><g transform="translate(6.35 1.439)"><g transform="translate(0.248 0.249)"><path class="b" d="M601.9,433.574l.177.252" transform="translate(-601.9 -433.574)"/></g><path class="d" d="M601.326,433.323a.248.248,0,0,1-.2-.106l-.177-.253a.249.249,0,0,1,.408-.284l.177.252a.249.249,0,0,1-.2.391Z" transform="translate(-600.901 -432.574)"/></g></g><g transform="translate(0 4.179)"><g transform="translate(0.187 0.186)"><path class="b" d="M575.769,444.878c-.1.113-.309.034-.423.133a.938.938,0,0,1-.217-.225.318.318,0,0,1-.028-.3.294.294,0,0,1,.314-.137.529.529,0,0,1,.3.2C575.794,444.64,575.849,444.786,575.769,444.878Z" transform="translate(-575.075 -444.343)"/></g><path class="d" d="M574.782,444.634a.187.187,0,0,1-.12-.043,1.116,1.116,0,0,1-.257-.273.5.5,0,0,1-.034-.481.485.485,0,0,1,.514-.236.706.706,0,0,1,.411.262.441.441,0,0,1,.048.574.465.465,0,0,1-.34.135.392.392,0,0,0-.1.016A.183.183,0,0,1,574.782,444.634Zm.025-.665c-.058,0-.093.016-.1.038a.14.14,0,0,0,.021.119.478.478,0,0,0,.086.1.827.827,0,0,1,.163-.025.42.42,0,0,0,.1-.014c-.012.008-.023-.041-.061-.085a.351.351,0,0,0-.191-.133Z" transform="translate(-574.323 -443.594)"/></g></g></g></g></g><g transform="translate(220.535 113.056)"><path class="b" d="M633.7,260.984h-.192" transform="translate(-633.509 -260.984)"/></g><g transform="translate(100.371 224.113)"><g transform="translate(0)"><path class="b" d="M196.27,710.669H152.126l-1.9-3.029h47.942Z" transform="translate(-150.227 -707.64)"/></g></g><g transform="translate(213.79 203.506)"><g transform="translate(36.052)"><g transform="translate(0 7.557)"><g transform="translate(1.09)"><g transform="translate(0 2.734)"><path class="b" d="M760.394,673.641V667.37a1.219,1.219,0,0,0-1.219-1.219h-2.2a1.219,1.219,0,0,0-1.219,1.219v6.272Z" transform="translate(-755.757 -666.151)"/></g><g transform="translate(0.981 1.664)"><rect class="b" width="2.675" height="1.248"/></g><g transform="translate(0.357)"><rect class="g" width="3.924" height="1.902"/></g><g transform="translate(5.378)"><g transform="translate(0 2.734)"><path class="b" d="M782.022,673.641V667.37a1.219,1.219,0,0,0-1.219-1.219h-2.2a1.219,1.219,0,0,0-1.219,1.219v6.272Z" transform="translate(-777.385 -666.151)"/></g><g transform="translate(0.981 1.664)"><rect class="b" width="2.675" height="1.248"/></g><g transform="translate(0.357)"><rect class="g" width="3.923" height="1.902"/></g></g></g><g transform="translate(0 5.773)"><rect class="d" width="16.36" height="10.149"/></g></g><g transform="translate(13.027)"><rect class="b" width="15.451" height="23.479"/><g transform="translate(11.815 19.692)"><path class="d" d="M853.255,704.943a.985.985,0,1,1-.985-.985A.984.984,0,0,1,853.255,704.943Z" transform="translate(-851.286 -703.958)"/></g><g transform="translate(1.771 13.939)"><path class="d" d="M821.086,681.319h-9.947a.249.249,0,0,1,0-.5h9.947a.249.249,0,0,1,0,.5Z" transform="translate(-810.89 -680.822)"/></g><g transform="translate(1.771 15.606)"><path class="d" d="M821.086,688.022h-9.947a.249.249,0,0,1,0-.5h9.947a.249.249,0,0,1,0,.5Z" transform="translate(-810.89 -687.525)"/></g><g transform="translate(1.771 17.474)"><path class="d" d="M821.086,695.536h-9.947a.249.249,0,0,1,0-.5h9.947a.249.249,0,0,1,0,.5Z" transform="translate(-810.89 -695.039)"/></g><g transform="translate(1.771 19.343)"><path class="d" d="M817.3,703.05h-6.16a.249.249,0,0,1,0-.5h6.16a.249.249,0,0,1,0,.5Z" transform="translate(-810.89 -702.553)"/><g transform="translate(0 1.868)"><path class="d" d="M817.3,710.563h-6.16a.249.249,0,0,1,0-.5h6.16a.249.249,0,1,1,0,.5Z" transform="translate(-810.89 -710.066)"/></g></g><g transform="translate(1.519 1.114)"><path class="d" d="M821.635,631.81H810.123a.248.248,0,0,1-.249-.249v-2.07a.249.249,0,0,1,.249-.249h11.512a.249.249,0,0,1,.249.249v2.07A.249.249,0,0,1,821.635,631.81Zm-11.264-.5h11.015v-1.573H810.371Z" transform="translate(-809.874 -629.242)"/></g></g></g><g transform="translate(0 4.696)"><g transform="translate(0 5.907)"><rect class="b" width="25.145" height="13.33"/></g><g transform="translate(1.483)"><g transform="translate(0 1.742)"><path class="b" d="M615.3,666.556h-2.954V651.427a.776.776,0,0,1,.776-.776h1.4a.776.776,0,0,1,.777.776Z" transform="translate(-612.345 -650.651)"/></g><g transform="translate(0.625 1.06)"><rect class="b" width="1.704" height="0.795"/></g><g transform="translate(0.227)"><rect class="g" width="2.499" height="1.212"/></g><g transform="translate(4.797)"><g transform="translate(0 1.742)"><path class="b" d="M634.591,666.556h-2.954V651.427a.776.776,0,0,1,.776-.776h1.4a.776.776,0,0,1,.777.776Z" transform="translate(-631.637 -650.651)"/></g><g transform="translate(0.625 1.06)"><rect class="b" width="1.704" height="0.795"/></g><g transform="translate(0.227)"><rect class="g" width="2.499" height="1.212"/></g></g><g transform="translate(9.594)"><g transform="translate(0 1.742)"><path class="b" d="M653.883,666.556h-2.954V651.427a.776.776,0,0,1,.776-.776h1.4a.776.776,0,0,1,.777.776Z" transform="translate(-650.929 -650.651)"/></g><g transform="translate(0.625 1.06)"><rect class="b" width="1.704" height="0.795"/></g><g transform="translate(0.227)"><rect class="g" width="2.499" height="1.212"/></g></g><g transform="translate(14.39)"><g transform="translate(0 1.742)"><path class="b" d="M673.175,666.556h-2.954V651.427a.776.776,0,0,1,.776-.776h1.4a.776.776,0,0,1,.776.776Z" transform="translate(-670.221 -650.651)"/></g><g transform="translate(0.625 1.06)"><rect class="b" width="1.704" height="0.795"/></g><g transform="translate(0.227)"><rect class="g" width="2.499" height="1.212"/></g></g><g transform="translate(19.187)"><g transform="translate(0 1.742)"><path class="b" d="M692.467,666.556h-2.954V651.427a.776.776,0,0,1,.776-.776h1.4a.776.776,0,0,1,.777.776Z" transform="translate(-689.513 -650.651)"/></g><g transform="translate(0.625 1.06)"><rect class="b" width="1.704" height="0.795"/></g><g transform="translate(0.227)"><rect class="g" width="2.499" height="1.212"/></g></g></g><g transform="translate(0 5.907)"><path class="g" d="M631.525,668.97l-8.331,4.039-16.814-2.525V667.4h25.145Z" transform="translate(-606.38 -667.404)"/></g><g transform="translate(18.631 15.981)"><path class="d" d="M683.282,708.9a.985.985,0,1,1-.985-.985A.985.985,0,0,1,683.282,708.9Z" transform="translate(-681.313 -707.918)"/></g><g transform="translate(6.665 16.208)"><rect class="d" width="11.108" height="1.818"/></g></g></g><g transform="translate(94.227 227.041)"><g transform="translate(0)"><g transform="translate(5.904 3.175)"><rect class="d" width="4.443" height="45.039"/></g><g transform="translate(179.396 3.175)"><rect class="d" width="4.443" height="45.039"/></g><rect class="f" width="190.617" height="6.354"/></g><g transform="translate(0.865 48.068)"><rect class="b" width="190.135" height="0.995"/></g></g></g></svg>