<svg xmlns="http://www.w3.org/2000/svg" width="45" height="43.578" viewBox="0 0 45 43.578"><defs><style>.a{fill:#0984e3;}</style></defs><g transform="translate(0 0)"><g transform="translate(0 0)"><g transform="translate(0 0)"><path class="a" d="M1.318,20.512a1.3,1.3,0,0,1,1.318,1.277c0,10.606,8.911,19.235,19.863,19.235s19.863-8.629,19.863-19.235S33.453,2.553,22.5,2.553a20.3,20.3,0,0,0-9.489,2.333l1.648,1.6a1.248,1.248,0,0,1,.286,1.391,1.32,1.32,0,0,1-1.218.788H7.419A1.3,1.3,0,0,1,6.1,7.385V1.276A1.277,1.277,0,0,1,6.915.1,1.35,1.35,0,0,1,8.351.374l2.726,2.64A22.973,22.973,0,0,1,22.5,0,22.728,22.728,0,0,1,38.41,6.381a21.305,21.305,0,0,1,0,30.814A22.728,22.728,0,0,1,22.5,43.577,22.728,22.728,0,0,1,6.59,37.2,21.306,21.306,0,0,1,0,21.788,1.3,1.3,0,0,1,1.318,20.512ZM8.738,4.358v1.75h1.807Z" transform="translate(0 0)"/></g></g><g transform="translate(13.706 13.153)"><path class="a" d="M242,151.084h5.442v-5.475a1,1,0,1,1,2.006,0v6.484a1.006,1.006,0,0,1-1,1.009H242a1.009,1.009,0,0,1,0-2.018Z" transform="translate(-241 -144.6)"/></g></g></svg>