<svg xmlns="http://www.w3.org/2000/svg" width="330.057" height="151.542" viewBox="0 0 330.057 151.542"><defs><style>.a{fill:#f1f5ff;}.al,.b{fill:#375d9d;}.b{opacity:0.24;}.c{fill:#fff;}.d{fill:#9d5e47;}.e{fill:#128385;}.f{fill:#345f9b;}.g{fill:#e6edff;}.h{fill:#454d77;}.i{fill:#d0dcff;}.j{fill:#acbdd2;}.k{fill:#583b5a;}.l{fill:#356493;}.m{fill:#fca19f;}.n{fill:#f97070;}.o{fill:#97a5ff;}.p{fill:#aab6cc;}.q{fill:#82a64e;}.r{fill:#353738;}.s{fill:#525354;}.t{fill:#c11b67;}.u{opacity:0.7;}.ak,.u,.x{mix-blend-mode:multiply;isolation:isolate;}.v{fill:#d2e8ff;}.w{opacity:0.33;}.x{opacity:0.11;}.y{fill:#e4eef9;}.z{fill:#5e71c7;}.aa{fill:#945661;}.ab{fill:#242638;}.ac{fill:#fce6a3;}.ad{opacity:0.52;}.ae{fill:#c3e6ff;}.af{fill:#627c35;}.ag{fill:#ffa192;}.ah{fill:#fc659f;}.ai{fill:#563136;}.aj{fill:#333;}</style></defs><g transform="translate(-798.236 -139)"><g transform="translate(10 13)"><g transform="translate(831.458 139)"><path class="a" d="M713.577,362.935s-55.334-15.529-31.041-37.114,36.038-.924,60.073-18.308-31.871-48.979,2.277-61.346,36.954,27.986,59.844,22.6,30.464-48.135,74.141-44.1c42.463,3.92,31.773,41.132,20.965,62.5s13.537,27.556,23.3,43.551S911.3,362.935,911.3,362.935Z" transform="translate(-676.37 -224.393)"/></g><g transform="translate(788.236 167.729)"><circle class="a" cx="24.564" cy="24.564" r="24.564"/></g><g transform="translate(1088.574 207.098)"><ellipse class="a" cx="10.16" cy="10.473" rx="10.16" ry="10.473"/></g><g transform="translate(839.165 151.393)"><g transform="translate(0 0)"><circle class="a" cx="5.13" cy="5.13" r="5.13" transform="translate(0 10.127) rotate(-80.783)"/></g></g><g transform="translate(1108.34 237.685)"><path class="a" d="M2654.663,931.07a4.978,4.978,0,1,1-4.976-5.129A5.055,5.055,0,0,1,2654.663,931.07Z" transform="translate(-2644.71 -925.94)"/></g></g><g transform="translate(788.236 139)"><path class="b" d="M1776.456,1156.109c0,4.166-33.391,7.543-74.581,7.543s-74.582-3.377-74.582-7.543,33.391-7.542,74.582-7.542S1776.456,1151.944,1776.456,1156.109Z" transform="translate(-1449.03 -1017.627)"/><g transform="translate(181.47 57.701)"><path class="c" d="M1649.921,712.047l23.874-80.4h87.267l-20.809,80.4Z" transform="translate(-1649.921 -631.644)"/><path class="d" d="M2312.582,631.644l18.3,77.666h-38.4Z" transform="translate(-2201.441 -631.644)"/></g><g transform="translate(206.936 62.105)"><g transform="translate(36.144 10.805)"><path class="e" d="M2095.951,764.324a10.788,10.788,0,0,1-3.437-.561,11.139,11.139,0,0,1-6.66-6.2,13.314,13.314,0,0,1-.36-9.62,13.453,13.453,0,0,1,4.632-6.506,11.851,11.851,0,0,1,7.074-2.444,10.784,10.784,0,0,1,3.437.561c6.111,2.05,9.26,9.149,7.021,15.824a13.454,13.454,0,0,1-4.631,6.506A11.854,11.854,0,0,1,2095.951,764.324Zm1.248-23.967c-4.544,0-8.825,3.3-10.408,8.017a11.946,11.946,0,0,0,.315,8.633,9.785,9.785,0,0,0,5.843,5.458,9.421,9.421,0,0,0,3,.49c4.545,0,8.825-3.3,10.408-8.017,2-5.96-.763-12.281-6.158-14.091A9.422,9.422,0,0,0,2097.2,740.358Z" transform="translate(-2084.766 -738.989)"/></g><path class="e" d="M2123.077,739.906l4.156,9.935,16.93-20.883-15.713,14.294Z" transform="translate(-2081.505 -719.573)"/><g transform="translate(0 55.396)"><path class="f" d="M1830.762,1055.993h59.913a1.141,1.141,0,0,0,0-2.281h-59.913a1.141,1.141,0,0,0,0,2.281Z" transform="translate(-1829.661 -1053.712)"/></g><g transform="translate(1.825 42.015)"><path class="f" d="M1843.642,961.547h59.609a1.141,1.141,0,0,0,0-2.281h-59.609a1.141,1.141,0,0,0,0,2.281Z" transform="translate(-1842.54 -959.266)"/></g><g transform="translate(4.258 24.071)"><path class="f" d="M1860.814,834.9h28.892a1.141,1.141,0,0,0,0-2.281h-28.892a1.141,1.141,0,0,0,0,2.281Z" transform="translate(-1859.712 -832.62)"/></g><g transform="translate(8.211 2.782)"><path class="f" d="M1888.719,684.645h66a1.141,1.141,0,0,0,0-2.281h-66a1.141,1.141,0,0,0,0,2.281Z" transform="translate(-1887.618 -682.364)"/></g><g transform="translate(50.317)"><path class="f" d="M2204.763,663.526q-7.349,24.344-15.321,48.493-2.264,6.858-4.579,13.7c-.471,1.394,1.731,1.992,2.2.607q8.147-24.088,15.675-48.38,2.137-6.9,4.224-13.813a1.141,1.141,0,0,0-2.2-.606Z" transform="translate(-2184.798 -662.727)"/></g><g transform="translate(10.678 1.19)"><path class="f" d="M1921.961,671.927l-13.17,45.479-3.715,12.827a1.141,1.141,0,0,0,2.2.607q6.585-22.74,13.17-45.479,1.858-6.414,3.715-12.827a1.141,1.141,0,0,0-2.2-.606Z" transform="translate(-1905.026 -671.125)"/></g></g></g><g transform="translate(916.685 139)"><g transform="translate(1.151 140.644)"><path class="g" d="M286.265,279.056c0-1.758-23.324-3.179-52.1-3.179s-52.093,1.421-52.093,3.179,23.322,3.177,52.093,3.177S286.265,280.812,286.265,279.056Z" transform="translate(-182.076 -275.877)"/></g><g transform="translate(17.838 140.056)"><circle class="h" cx="2.227" cy="2.227" r="2.227"/></g><g transform="translate(33.386 140.056)"><circle class="h" cx="2.227" cy="2.227" r="2.227"/></g><g transform="translate(15.975 102.567)"><path class="h" d="M0,0H23.132a0,0,0,0,1,0,0V5.6a1.17,1.17,0,0,1-1.17,1.17H1.169A1.169,1.169,0,0,1,0,5.6V0A0,0,0,0,1,0,0Z" transform="translate(23.132 6.771) rotate(180)"/></g><g transform="translate(15.692 106.517)"><rect class="i" width="23.7" height="3.292" transform="translate(23.7 3.292) rotate(180)"/></g><g transform="translate(26.178 108.209)"><rect class="i" width="3.261" height="32.162" transform="translate(3.261 32.162) rotate(180)"/></g><g transform="translate(17.275 139.115)"><path class="i" d="M190.1,277.439h20.75a2.321,2.321,0,0,0-2.319-2.323H192.419a2.323,2.323,0,0,0-2.319,2.323Z" transform="translate(-190.1 -275.116)"/></g><g transform="translate(45.432)"><g transform="translate(36.125 132.918)"><path class="j" d="M222.089,272.032l1.677,8.982,4.759-.8-.135-.94-.87-6.568Z" transform="translate(-222.089 -272.032)"/></g><g transform="translate(26.591 139.041)"><path class="k" d="M233.359,275.079s-1.654,2.638-5.273.088c0,0-10.59,3.842-10.727,5.182s.671,1.475.671,1.475l15.684-.135Z" transform="translate(-217.345 -275.079)"/></g><g transform="translate(18.096 133.389)"><path class="j" d="M213.721,272.267l-.6,8.444,5.429-.736-.132-.94.535-5.628Z" transform="translate(-213.117 -272.267)"/></g><g transform="translate(16.642 64.998)"><path class="h" d="M212.889,240.064l-.5,6.033.091,65.326,8.312.269,2.5-59.071,1.34-.089L230.8,311.6h8.759l-1.342-33.512.358-36.016-5.541-3.843Z" transform="translate(-212.394 -238.232)"/></g><g transform="translate(18.296 80.101)"><path class="l" d="M213.352,303.793h0a.135.135,0,0,1-.133-.137l1.071-57.776a.136.136,0,0,1,.137-.133h0a.137.137,0,0,1,.133.137l-1.075,57.776A.134.134,0,0,1,213.352,303.793Z" transform="translate(-213.217 -245.748)"/></g><g transform="translate(34.474 79.074)"><path class="l" d="M224.974,304.49a.139.139,0,0,1-.135-.131l-3.571-58.98a.131.131,0,0,1,.125-.143.134.134,0,0,1,.141.127l3.575,58.982a.137.137,0,0,1-.127.145Z" transform="translate(-221.268 -245.237)"/></g><g transform="translate(7.556 139.041)"><path class="k" d="M223.885,275.079s-1.654,2.638-5.273.088c0,0-10.59,3.842-10.724,5.182s.671,1.475.671,1.475l15.684-.135Z" transform="translate(-207.872 -275.079)"/></g><g transform="translate(27.948 66.921)"><path class="l" d="M232.364,246.606a.133.133,0,0,1-.1-.042l-6.754-7.107-7.357.09h0a.136.136,0,0,1-.135-.133.133.133,0,0,1,.133-.137l7.417-.088a.129.129,0,0,1,.1.04l6.792,7.15a.135.135,0,0,1-.1.227Z" transform="translate(-218.02 -239.189)"/></g><g transform="translate(16.508 67.009)"><path class="l" d="M223.365,251.744a.132.132,0,0,1-.121-.074l-.537-1.071a.164.164,0,0,1-.014-.06l-.088-11.034-6.495.175-3.535,5.48a.135.135,0,0,1-.227-.147l3.575-5.538a.129.129,0,0,1,.108-.062l6.7-.179a.126.126,0,0,1,.1.038.129.129,0,0,1,.042.094l.088,11.138.52,1.047a.135.135,0,0,1-.058.181A.154.154,0,0,1,223.365,251.744Z" transform="translate(-212.327 -239.233)"/></g><g transform="translate(0 19.224)"><path class="g" d="M218.044,219.918s-4.861,5.639-5.3,6.635.072,16.924.072,16.924l-8.7,17.7,4.278,3.394,11.1-16.447.774,5.2-.516,43.549s11.653.886,29.8.886c0,0-1.033-37.318-1.622-42.038a69.828,69.828,0,0,0-1.477-8.112s3.392-3.541,2.654-6.048-7-23.822-8.922-24.411-12.611-1.7-12.611-1.7Z" transform="translate(-204.112 -215.453)"/></g><g transform="translate(13.389 12.649)"><path class="m" d="M216.305,212.181l3.758,7.037s1.368,4.971-3.06,5.663-4.881-2.371-4.881-2.371l0-1.407-1.35-4.395Z" transform="translate(-210.775 -212.181)"/></g><g transform="translate(13.749 12.862)"><path class="n" d="M217.179,214.13l-.942-1.843-1.776,1.151-1.63,1.332-1.877,3,.733,2.4C212.984,220.22,217.5,218.689,217.179,214.13Z" transform="translate(-210.954 -212.287)"/></g><g transform="translate(13.932 18.555)"><path class="o" d="M216.4,220.873a28.954,28.954,0,0,0,2.861-5.753l2.166.679-1.869,25.91-8.51-21.455.814-1.969Z" transform="translate(-211.045 -215.12)"/></g><g transform="translate(17.87 24.377)"><path class="k" d="M214.434,218.017l-1.429,1,1.18,1.73.068,9.589,3.324,8.444s.84-9.191.746-9.424-2.757-8.763-2.757-8.763l.557-2.462Z" transform="translate(-213.005 -218.017)"/></g><g transform="translate(7.536 58.186)"><g transform="translate(3.511 2.105)"><rect class="o" width="1.391" height="7.109" transform="matrix(0.766, 0.643, -0.643, 0.766, 4.571, 0)"/></g><g transform="translate(0 8.926)"><path class="p" d="M211.032,239.422l-3.17,3.77.051-.227,3.094-3.681Z" transform="translate(-207.862 -239.284)"/></g><g transform="translate(3.083 7.899)"><path class="q" d="M209.816,239.893l-.367.09,0,0-.049-.039v0l.026-.378.536-.788.181.151.181.152.18.153Z" transform="translate(-209.396 -238.773)"/></g><g transform="translate(3.9 0.517)"><path class="i" d="M209.919,242.706l-.116-.1,6.315-7.51.116.1Z" transform="translate(-209.803 -235.1)"/></g><g transform="translate(5.775 4.403)"><g transform="translate(0.097 0.126)"><rect class="r" width="1.141" height="0.473" transform="translate(0.304 0) rotate(40.041)"/></g><g transform="translate(0 0.391)"><path class="s" d="M211.656,238.14l-.9-.754a.067.067,0,0,1-.008-.094l.034-.04a.071.071,0,0,1,.1-.01l.894.754a.069.069,0,0,1,.008.1l-.032.04A.069.069,0,0,1,211.656,238.14Z" transform="translate(-210.736 -237.228)"/></g><g transform="translate(0.328)"><path class="s" d="M211.821,237.945l-.9-.752a.067.067,0,0,1-.006-.1l.032-.04a.069.069,0,0,1,.1-.008l.894.754a.065.065,0,0,1,.01.094l-.034.04A.065.065,0,0,1,211.821,237.945Z" transform="translate(-210.899 -237.033)"/></g></g><g transform="translate(3.372 7.539)"><rect class="q" width="1.391" height="0.199" transform="matrix(0.766, 0.643, -0.643, 0.766, 0.128, 0)"/></g><g transform="translate(3.593 4.968)"><rect class="t" width="1.132" height="3.458" transform="translate(2.222 0) rotate(39.979)"/></g><g transform="translate(8.073 0.341)"><path class="o" d="M212.947,237.665l-1.067-.9.655-.777.672-.173.678-.807.448.376-.679.807-.054.694Z" transform="translate(-211.88 -235.012)"/></g><g class="u" transform="translate(8.607 0.528)"><path class="v" d="M213.386,236.1l-.054.694-.652.777-.534-.447,1.7-2.018.222.188Z" transform="translate(-212.145 -235.105)"/></g><g transform="translate(9.617)"><path class="i" d="M213.832,235.959l-1.161-.979a.055.055,0,0,1-.006-.082l.026-.036a.06.06,0,0,1,.082-.006l1.165.979a.056.056,0,0,1,.006.082l-.028.034A.06.06,0,0,1,213.832,235.959Z" transform="translate(-212.648 -234.842)"/></g><g class="w" transform="translate(4.064 2.389)"><g transform="translate(0 4.174)"><g transform="translate(0 0.265)"><path class="s" d="M210.28,238.612l-.4-.331.033-.041.394.333Z" transform="translate(-209.885 -238.24)"/></g><g transform="translate(0.06 0.193)"><path class="s" d="M210.161,238.451l-.246-.2.033-.041.245.207Z" transform="translate(-209.915 -238.205)"/></g><g transform="translate(0.117 0.127)"><path class="s" d="M210.189,238.419l-.246-.209.034-.038.245.206Z" transform="translate(-209.943 -238.171)"/></g><g transform="translate(0.169 0.061)"><rect class="s" width="0.322" height="0.053" transform="translate(0.034 0) rotate(40.035)"/></g><g transform="translate(0.221)"><path class="s" d="M210.241,238.356l-.246-.207.034-.04.246.206Z" transform="translate(-209.995 -238.108)"/></g></g><g transform="translate(0.369 3.736)"><g transform="translate(0 0.263)"><path class="s" d="M210.461,238.394l-.392-.331.032-.042.4.333Z" transform="translate(-210.068 -238.021)"/></g><g transform="translate(0.059 0.192)"><path class="s" d="M210.343,238.234l-.245-.207.035-.04.245.206Z" transform="translate(-210.098 -237.986)"/></g><g transform="translate(0.116 0.126)"><path class="s" d="M210.372,238.2l-.246-.207.035-.039.244.206Z" transform="translate(-210.126 -237.953)"/></g><g transform="translate(0.169 0.062)"><path class="s" d="M210.4,238.17l-.246-.208.035-.04.246.207Z" transform="translate(-210.152 -237.921)"/></g><g transform="translate(0.222)"><path class="s" d="M210.424,238.137l-.245-.206.033-.04.247.206Z" transform="translate(-210.179 -237.891)"/></g></g><g transform="translate(0.756 3.273)"><g transform="translate(0 0.265)"><path class="s" d="M210.657,238.163l-.4-.331.034-.04.4.331Z" transform="translate(-210.261 -237.792)"/></g><g transform="translate(0.062 0.192)"><path class="s" d="M210.537,238l-.245-.208.032-.04.246.207Z" transform="translate(-210.292 -237.756)"/></g><g transform="translate(0.118 0.126)"><path class="s" d="M210.565,237.969l-.245-.206.034-.04.245.206Z" transform="translate(-210.32 -237.723)"/></g><g transform="translate(0.172 0.062)"><path class="s" d="M210.592,237.938l-.245-.206.033-.041.245.206Z" transform="translate(-210.347 -237.691)"/></g><g transform="translate(0.223)"><path class="s" d="M210.618,237.907l-.246-.207.034-.04.245.208Z" transform="translate(-210.372 -237.66)"/></g></g><g transform="translate(1.126 2.836)"><g transform="translate(0 0.262)"><path class="s" d="M210.841,237.946l-.4-.331.033-.042.4.332Z" transform="translate(-210.445 -237.573)"/></g><g transform="translate(0.06 0.191)"><path class="s" d="M210.719,237.786l-.244-.207.033-.041.247.207Z" transform="translate(-210.475 -237.538)"/></g><g transform="translate(0.116 0.126)"><path class="s" d="M210.748,237.75l-.245-.206.033-.039.246.2Z" transform="translate(-210.503 -237.505)"/></g><g transform="translate(0.169 0.061)"><path class="s" d="M210.776,237.719l-.247-.207.035-.039.246.206Z" transform="translate(-210.529 -237.473)"/></g><g transform="translate(0.221)"><path class="s" d="M210.8,237.688l-.246-.205.035-.04.244.206Z" transform="translate(-210.555 -237.442)"/></g></g><g transform="translate(1.554 2.326)"><g transform="translate(0 0.264)"><path class="s" d="M211.052,237.692l-.393-.332.033-.04.394.331Z" transform="translate(-210.658 -237.32)"/></g><g transform="translate(0.06 0.192)"><path class="s" d="M210.934,237.532l-.246-.207.034-.04.245.209Z" transform="translate(-210.688 -237.285)"/></g><g transform="translate(0.117 0.126)"><path class="s" d="M210.962,237.5l-.245-.206.034-.039.245.206Z" transform="translate(-210.716 -237.252)"/></g><g transform="translate(0.169 0.062)"><path class="s" d="M210.988,237.467l-.246-.206.034-.041.246.206Z" transform="translate(-210.742 -237.22)"/></g><g transform="translate(0.222)"><path class="s" d="M211.015,237.435l-.246-.206.034-.04.246.206Z" transform="translate(-210.769 -237.189)"/></g></g><g transform="translate(1.921 1.886)"><g transform="translate(0 0.265)"><path class="s" d="M211.236,237.474l-.4-.332.035-.041.394.332Z" transform="translate(-210.841 -237.102)"/></g><g transform="translate(0.061 0.193)"><path class="s" d="M211.117,237.314l-.246-.206.034-.042.246.207Z" transform="translate(-210.871 -237.066)"/></g><g transform="translate(0.118 0.128)"><path class="s" d="M211.145,237.28l-.245-.207.033-.039.247.205Z" transform="translate(-210.899 -237.033)"/></g><g transform="translate(0.172 0.062)"><path class="s" d="M211.172,237.25l-.246-.207.033-.042.246.208Z" transform="translate(-210.926 -237.001)"/></g><g transform="translate(0.224)"><path class="s" d="M211.2,237.219l-.246-.208.034-.041.245.208Z" transform="translate(-210.952 -236.97)"/></g></g><g transform="translate(2.365 1.36)"><g transform="translate(0 0.266)"><path class="s" d="M211.456,237.212l-.394-.333.033-.039.394.333Z" transform="translate(-211.061 -236.84)"/></g><g transform="translate(0.059 0.194)"><path class="s" d="M211.338,237.052l-.247-.206.036-.041.245.206Z" transform="translate(-211.091 -236.805)"/></g><g transform="translate(0.117 0.126)"><path class="s" d="M211.366,237.018l-.246-.206.033-.041.247.207Z" transform="translate(-211.12 -236.77)"/></g><g transform="translate(0.171 0.064)"><path class="s" d="M211.391,236.987l-.244-.207.034-.04.244.207Z" transform="translate(-211.146 -236.74)"/></g><g transform="translate(0.221)"><path class="s" d="M211.418,236.956l-.246-.206.036-.042.246.209Z" transform="translate(-211.171 -236.708)"/></g></g><g transform="translate(2.733 0.924)"><g transform="translate(0 0.263)"><path class="s" d="M211.639,236.994l-.394-.333.033-.039.4.332Z" transform="translate(-211.245 -236.622)"/></g><g transform="translate(0.059 0.191)"><path class="s" d="M211.521,236.834l-.246-.206.035-.041.244.207Z" transform="translate(-211.274 -236.586)"/></g><g transform="translate(0.117 0.124)"><path class="s" d="M211.549,236.8l-.245-.207.033-.041.246.207Z" transform="translate(-211.303 -236.553)"/></g><g transform="translate(0.169 0.06)"><path class="s" d="M211.575,236.767l-.246-.207.036-.039.244.206Z" transform="translate(-211.329 -236.521)"/></g><g transform="translate(0.224)"><path class="s" d="M211.6,236.738l-.244-.208.033-.038.245.2Z" transform="translate(-211.356 -236.491)"/></g></g><g transform="translate(3.142 0.438)"><g transform="translate(0 0.264)"><path class="s" d="M211.842,236.752l-.393-.33.033-.041.394.333Z" transform="translate(-211.448 -236.381)"/></g><g transform="translate(0.059 0.192)"><path class="s" d="M211.724,236.592l-.246-.206.034-.04.246.207Z" transform="translate(-211.478 -236.345)"/></g><g transform="translate(0.115 0.126)"><path class="s" d="M211.753,236.558l-.247-.207.036-.039.245.207Z" transform="translate(-211.505 -236.312)"/></g><g transform="translate(0.169 0.061)"><path class="s" d="M211.779,236.527l-.246-.206.036-.041.244.208Z" transform="translate(-211.532 -236.28)"/></g><g transform="translate(0.221)"><path class="s" d="M211.8,236.5l-.246-.207.034-.04.246.207Z" transform="translate(-211.558 -236.249)"/></g></g><g transform="translate(3.51)"><g transform="translate(0 0.263)"><path class="s" d="M212.026,236.534l-.394-.332.033-.04.4.333Z" transform="translate(-211.631 -236.162)"/></g><g transform="translate(0.059 0.192)"><path class="s" d="M211.907,236.374l-.246-.207.034-.04.245.207Z" transform="translate(-211.661 -236.127)"/></g><g transform="translate(0.117 0.126)"><path class="s" d="M211.935,236.34l-.245-.207.033-.038.245.205Z" transform="translate(-211.689 -236.094)"/></g><g transform="translate(0.171 0.062)"><path class="s" d="M211.961,236.309l-.244-.207.033-.04.244.206Z" transform="translate(-211.716 -236.062)"/></g><g transform="translate(0.222)"><path class="s" d="M211.988,236.278l-.246-.207.035-.04.244.206Z" transform="translate(-211.742 -236.031)"/></g></g></g><g class="x" transform="translate(8.039 1.935)"><path d="M213.1,236.7l-1.067-.9-.172.206,1.064.9Z" transform="translate(-211.863 -235.805)"/></g><g transform="translate(7.345 1.576)"><path class="i" d="M213.812,237.677l-2.273-1.913a.058.058,0,0,1-.008-.082l.03-.034a.06.06,0,0,1,.082-.008l2.273,1.911a.061.061,0,0,1,.008.084l-.032.034A.057.057,0,0,1,213.812,237.677Z" transform="translate(-211.517 -235.627)"/></g></g><g transform="translate(15.07 24.377)"><path class="y" d="M221.3,218.537a.059.059,0,0,0,.04-.052.064.064,0,0,0-.06-.066l-5.444-.4a.059.059,0,0,0-.04.012l-4.162,2.755a.059.059,0,0,0-.016.084.063.063,0,0,0,.086.02l4.143-2.745,5.424.4A.064.064,0,0,0,221.3,218.537Z" transform="translate(-211.611 -218.017)"/></g><g transform="translate(22.332 19.26)"><path class="o" d="M218.669,297.556a.111.111,0,0,1-.11-.109c0-.356-.332-35.559-.223-39.5.111-3.92-3.074-16.439-3.107-16.566a.109.109,0,0,1,0-.062l4.861-14.981-2.5-2.829a.109.109,0,0,1-.014-.125l4.2-7.853a.111.111,0,0,1,.151-.048.114.114,0,0,1,.044.151l-4.168,7.787,2.492,2.819a.1.1,0,0,1,.024.107l-4.871,15.011c.177.7,3.213,12.742,3.107,16.6-.111,3.935.217,39.132.221,39.488a.111.111,0,0,1-.111.113Z" transform="translate(-215.225 -215.471)"/></g><g transform="translate(11.505 26.341)"><path class="o" d="M220.457,237.358a.11.11,0,0,1-.09-.046l-8.446-12.023a.107.107,0,0,1-.012-.1l.9-2.56-2.944-3.452a.11.11,0,1,1,.167-.145l2.988,3.5a.107.107,0,0,1,.018.109l-.9,2.564,8.412,11.974a.112.112,0,0,1-.026.155A.127.127,0,0,1,220.457,237.358Z" transform="translate(-209.837 -218.995)"/></g><g transform="translate(15.117 57.28)"><path class="z" d="M222.553,234.391l2.064,3.762s-2.433,1.252-2.657,1.4-5.16,3.392-5.677,3.243-.591-.956-.961-1.031-1.178-1.18-1.326-1.475-2.287-.442-2.361-.886,5.532-2.433,5.532-2.727-3.685-1.035-3.685-1.624,6.561.516,6.561.516Z" transform="translate(-211.635 -234.391)"/></g><g transform="translate(25.406 32.979)"><path class="o" d="M219.743,250.985h-.024a.118.118,0,0,1-.072-.054l-2.876-5.088a.109.109,0,0,1,.01-.127l10.5-12.706-4.841-10.556a.112.112,0,0,1,.054-.147.109.109,0,0,1,.147.054l4.867,10.62a.107.107,0,0,1-.012.117L217,245.8l2.777,4.913,13.839-10.1a.109.109,0,1,1,.129.177l-13.938,10.178A.11.11,0,0,1,219.743,250.985Z" transform="translate(-216.755 -222.298)"/></g><g transform="translate(33.05 67.194)"><path class="o" d="M229.947,241.288h-9.276a.112.112,0,0,1-.113-.113v-1.742a.11.11,0,0,1,.113-.109h9.276a.11.11,0,0,1,.11.109v1.742A.112.112,0,0,1,229.947,241.288Zm-9.165-.223h9.055v-1.521h-9.055Z" transform="translate(-220.559 -239.325)"/></g><g transform="translate(16.496 67.194)"><path class="o" d="M217.819,241.288h-5.385a.114.114,0,0,1-.113-.113v-1.742a.112.112,0,0,1,.113-.109h5.385a.11.11,0,0,1,.111.109v1.742A.112.112,0,0,1,217.819,241.288Zm-5.277-.223h5.166v-1.521h-5.166Z" transform="translate(-212.321 -239.325)"/></g><g transform="translate(11.947 37.737)"><path class="o" d="M213.485,238.936a.113.113,0,0,1-.106-.084L210.061,224.8a.107.107,0,0,1,.082-.131.11.11,0,0,1,.133.08l3.318,14.05a.107.107,0,0,1-.08.133Z" transform="translate(-210.058 -224.665)"/></g><g transform="translate(31.083 21.031)"><path class="o" d="M219.692,225.2a.11.11,0,0,1-.111-.109,11.068,11.068,0,0,1,.812-4.567,7.49,7.49,0,0,1,1.895-2.653,6.6,6.6,0,0,1,2.8-1.519.111.111,0,0,1,.046.217,6.447,6.447,0,0,0-2.711,1.475c-1.228,1.1-2.679,3.207-2.624,7.045a.111.111,0,0,1-.106.111Z" transform="translate(-219.58 -216.352)"/></g><g transform="translate(8.518 30.213)"><path class="o" d="M210.451,225.9a.111.111,0,0,1-.106-.082,23.168,23.168,0,0,0-1.979-4.73.108.108,0,0,1,.04-.149.11.11,0,0,1,.153.042,23.308,23.308,0,0,1,2,4.784.113.113,0,0,1-.082.133Z" transform="translate(-208.351 -220.922)"/></g><g transform="translate(23.396 45.452)"><path class="o" d="M216.448,229.887a.691.691,0,1,1,.689-.691A.693.693,0,0,1,216.448,229.887Zm0-1.161a.47.47,0,1,0,.468.47A.47.47,0,0,0,216.448,228.726Z" transform="translate(-215.755 -228.505)"/></g><g transform="translate(25.333 51.398)"><path class="o" d="M217.41,232.846a.691.691,0,1,1,.689-.691A.691.691,0,0,1,217.41,232.846Zm0-1.161a.469.469,0,1,0,.468.47A.471.471,0,0,0,217.41,231.685Z" transform="translate(-216.719 -231.464)"/></g><g transform="translate(26.991 65.366)"><path class="o" d="M218.237,239.8a.69.69,0,1,1,.691-.691A.693.693,0,0,1,218.237,239.8Zm0-1.161a.471.471,0,1,0,.468.47A.471.471,0,0,0,218.237,238.634Z" transform="translate(-217.544 -238.415)"/></g><g transform="translate(27.24 73.494)"><path class="o" d="M218.359,243.844a.692.692,0,1,1,.691-.691A.693.693,0,0,1,218.359,243.844Zm0-1.163a.471.471,0,1,0,.472.472A.471.471,0,0,0,218.359,242.681Z" transform="translate(-217.668 -242.46)"/></g><g transform="translate(27.186 83.507)"><path class="o" d="M218.332,248.823a.69.69,0,1,1,.691-.689A.691.691,0,0,1,218.332,248.823Zm0-1.161a.471.471,0,1,0,.47.472A.474.474,0,0,0,218.332,247.662Z" transform="translate(-217.641 -247.443)"/></g><g transform="translate(27.186 93.52)"><path class="o" d="M218.332,253.807a.69.69,0,1,1,.691-.691A.691.691,0,0,1,218.332,253.807Zm0-1.161a.47.47,0,1,0,.47.47A.472.472,0,0,0,218.332,252.645Z" transform="translate(-217.641 -252.426)"/></g><g transform="translate(4.186)"><g transform="translate(2.5 1.933)"><path class="m" d="M207.981,216.118c1.159,3.318,4.3,9.647,7.682,8.7,3.559-1,4.813-3.428,4.465-6.9,0,0,1.961.193,1.218-2.206-.328-1.061-1.379-.187-1.379-.187s-.191-9.33-5.942-8.639S206.39,211.583,207.981,216.118Z" transform="translate(-207.439 -206.848)"/></g><g transform="translate(8.438 9.024)"><path class="aa" d="M211.1,211.77a1.084,1.084,0,0,1-.271.221.283.283,0,0,1-.328-.05.569.569,0,0,1-.062-.567,1.353,1.353,0,0,1,.749-.671,2.858,2.858,0,0,1,.951-.32,1.287,1.287,0,0,1,.989.307.238.238,0,0,1,.08.115.159.159,0,0,1-.068.167.343.343,0,0,1-.169.024A2.626,2.626,0,0,0,211.1,211.77Z" transform="translate(-210.394 -210.377)"/></g><g transform="translate(4.189 10.887)"><path class="aa" d="M210.3,212.134a.9.9,0,0,0,.319.006.244.244,0,0,0,.185-.233.626.626,0,0,0-.315-.472,1.165,1.165,0,0,0-.918-.07,2.288,2.288,0,0,0-.828.326,1.111,1.111,0,0,0-.46.828.257.257,0,0,0,.018.139.154.154,0,0,0,.151.086.273.273,0,0,0,.127-.08A2.1,2.1,0,0,1,210.3,212.134Z" transform="translate(-208.28 -211.304)"/></g><g transform="translate(7.907 12.549)"><path class="ab" d="M210.98,215.023a1.058,1.058,0,0,1-.442-.1.315.315,0,0,1-.11-.074.381.381,0,0,1-.066-.285,4.993,4.993,0,0,0-.231-2.371l.135-.062a5.085,5.085,0,0,1,.243,2.441.238.238,0,0,0,.028.179.188.188,0,0,0,.064.042.9.9,0,0,0,.5.074c.068-.01.139-.026.211-.044a.782.782,0,0,1,.617.012l-.076.125a.687.687,0,0,0-.506,0,2.036,2.036,0,0,1-.225.048A1.144,1.144,0,0,1,210.98,215.023Z" transform="translate(-210.13 -212.131)"/></g><g transform="translate(5.554 12.216)"><path class="ab" d="M209.075,213.183c-.2-.559-.133-1.1.153-1.2s.683.263.884.824.137,1.1-.153,1.2S209.278,213.741,209.075,213.183Z" transform="translate(-208.959 -211.965)"/></g><g transform="translate(9.92 10.468)"><path class="ab" d="M211.249,212.312c-.2-.559-.135-1.1.151-1.2s.685.265.886.824.135,1.1-.153,1.2S211.45,212.873,211.249,212.312Z" transform="translate(-211.132 -211.095)"/></g><g transform="translate(7.744 15.406)"><path class="c" d="M210.049,214.97a9.805,9.805,0,0,0,4.25-1.417s-.283,1.9-1.686,2.291A2.846,2.846,0,0,1,210.049,214.97Z" transform="translate(-210.049 -213.553)"/></g><path class="ac" d="M207.183,214.7c-.348-.111-.778-.207-.9-.551a.883.883,0,0,1,.4-.906c.277-.223.611-.41.75-.735-.731.1-1.31-.746-1.23-1.479a2.433,2.433,0,0,1,.993-1.6,6.016,6.016,0,0,1,1.742-.838,22.935,22.935,0,0,1,3.535-.874,4.326,4.326,0,0,0,2.779-1.1,2.3,2.3,0,0,1,.583-.637.989.989,0,0,1,1.212.4,2.878,2.878,0,0,1,.388,1.324,1.712,1.712,0,0,1,1.431-.35c.486.161.768.864.388,1.2-.125.109-.307.183-.34.346-.032.183.151.322.307.424a5.635,5.635,0,0,1,1.658,7.789c-.735-1.105-1.644-2.084-2.419-3.159a7.567,7.567,0,0,1-1.561-3.609,11.586,11.586,0,0,1-7.353,3.651.633.633,0,0,0-.659.884c.125.828.348,1.7.472,2.522C208.761,216.5,208.319,215.061,207.183,214.7Z" transform="translate(-206.195 -205.886)"/><g transform="translate(1.063 3.348)"><path class="c" d="M220.414,214.858a.073.073,0,0,1-.06-.032,27.225,27.225,0,0,1-3.826-6.963,3.862,3.862,0,0,1-.854.77c-.052.042-.1.074-.122.094a10.623,10.623,0,0,1-1.983,1.28,19.713,19.713,0,0,1-4.535,1.4c-.436.1-.888.2-1.332.305a1.321,1.321,0,0,0-.709.338.511.511,0,0,0-.113.4.309.309,0,0,0,.145.217.074.074,0,0,1-.07.131.447.447,0,0,1-.219-.322.657.657,0,0,1,.145-.529,1.451,1.451,0,0,1,.788-.384c.446-.109.9-.209,1.334-.305a19.67,19.67,0,0,0,4.5-1.393,10.35,10.35,0,0,0,1.951-1.26c.026-.022.072-.056.131-.1.764-.573.892-.786.864-.862a.076.076,0,0,1,.143-.05,27.019,27.019,0,0,0,3.88,7.134.077.077,0,0,1-.016.106A.069.069,0,0,1,220.414,214.858Z" transform="translate(-206.724 -207.552)"/></g><g transform="translate(1.298 3.36)"><path class="c" d="M206.915,210.622a.081.081,0,0,1-.054-.022.076.076,0,0,1,0-.107,5.956,5.956,0,0,1,3.275-1.188l.1-.016a10.849,10.849,0,0,0,4.909-1.718.074.074,0,0,1,.1.016.072.072,0,0,1-.014.1,11,11,0,0,1-4.973,1.748l-.1.016a5.855,5.855,0,0,0-3.2,1.147A.064.064,0,0,1,206.915,210.622Z" transform="translate(-206.841 -207.558)"/></g><g transform="translate(8.398 9.94)"><g class="ad" transform="translate(0 0)"><g transform="translate(0)"><path class="ae" d="M.173,0H3.6a.174.174,0,0,1,.174.174V1.932a.174.174,0,0,1-.174.174H.173A.173.173,0,0,1,0,1.932V.173A.173.173,0,0,1,.173,0Z" transform="translate(0 1.445) rotate(-22.52)"/></g></g><g transform="translate(0.036 0.037)"><path class="ab" d="M210.966,213.909l-.541-1.3a.415.415,0,0,1,.223-.547l2.845-1.18a.415.415,0,0,1,.545.227l.541,1.3a.419.419,0,0,1-.227.545l-2.841,1.18A.415.415,0,0,1,210.966,213.909Zm-.261-1.718a.276.276,0,0,0-.151.364l.541,1.3a.273.273,0,0,0,.362.151l2.843-1.18a.28.28,0,0,0,.151-.364l-.539-1.3a.281.281,0,0,0-.366-.151Z" transform="translate(-210.392 -210.851)"/></g></g><g transform="translate(3.728 11.876)"><g class="ad" transform="translate(0 0)"><g transform="translate(0)"><path class="ae" d="M.174,0H3.6a.173.173,0,0,1,.173.173V1.932a.173.173,0,0,1-.173.173H.173A.173.173,0,0,1,0,1.932V.174A.174.174,0,0,1,.174,0Z" transform="matrix(0.924, -0.383, 0.383, 0.924, 0, 1.446)"/></g></g><g transform="translate(0.036 0.038)"><path class="ab" d="M208.641,214.871l-.541-1.3a.421.421,0,0,1,.227-.549l2.843-1.178a.421.421,0,0,1,.547.225l.539,1.3a.418.418,0,0,1-.225.545l-2.843,1.18A.419.419,0,0,1,208.641,214.871Zm-.259-1.718a.281.281,0,0,0-.153.366l.541,1.3a.278.278,0,0,0,.364.151l2.845-1.18a.28.28,0,0,0,.149-.364l-.539-1.3a.281.281,0,0,0-.366-.151Z" transform="translate(-208.068 -211.815)"/></g></g><g transform="translate(7.553 12.299)"><path class="ab" d="M210.153,212.674l-.2-.06a1.023,1.023,0,0,1,1.3-.569l-.042.2C210.354,212.07,210.161,212.65,210.153,212.674Z" transform="translate(-209.954 -212.007)"/></g><g transform="translate(12.195 10.401)"><path class="ab" d="M212.423,211.662l2.674-.393.1-.207-2.936.181Z" transform="translate(-212.264 -211.062)"/></g></g></g><g transform="translate(48.216 129.586)"><g transform="translate(0.208)"><path class="m" d="M210.51,278.82a2.134,2.134,0,0,1-.1-.215l.012-8.231-4.817.884s.627,4.779.721,7.284A15.592,15.592,0,0,1,210.51,278.82Z" transform="translate(-205.601 -270.374)"/></g><g transform="translate(0 5.749)"><path class="af" d="M216.108,279.173c-4.451-.563-5.486-3.434-5.486-3.434l.157-2.5-4.8.4c.078,1.037.468,2.636.42,3.123-.165,1.692-1.493,5.468-.6,6.476,0,0,12.555.7,13.825.468S220.561,279.738,216.108,279.173Z" transform="translate(-205.498 -273.235)"/></g><g transform="translate(0.005 11.641)"><path class="c" d="M216.114,276.213c-.107-.01-.2-.032-.3-.046a9.08,9.08,0,0,0-.468,2.982l-9.846-.076a1.8,1.8,0,0,0,.309,1.2s12.553.7,13.825.466S220.565,276.778,216.114,276.213Z" transform="translate(-205.5 -276.167)"/></g><g transform="translate(1.35 10.26)"><path class="c" d="M208.809,277.1a1.335,1.335,0,1,0-1.589,1.023A1.337,1.337,0,0,0,208.809,277.1Z" transform="translate(-206.169 -275.48)"/></g><g transform="translate(3.842 6.058)"><path class="c" d="M207.647,280.571a.1.1,0,0,1-.054-.133,14.8,14.8,0,0,0,.979-2.948c.01-.054.02-.108.028-.167a3.013,3.013,0,0,1-.464-.046.1.1,0,0,1-.032-.185l.559-.332c.006-.074.01-.149.012-.227l-.924-.107a.106.106,0,0,1-.084-.076.1.1,0,0,1,.04-.107,2.78,2.78,0,0,1,.641-.322l-.858-.195a.1.1,0,0,1-.024-.185,8.069,8.069,0,0,1,.852-.378,3.236,3.236,0,0,1-.814-.293.1.1,0,0,1-.044-.115.1.1,0,0,1,.094-.076h0a1.554,1.554,0,0,0,.731-.183l-.008-.014a.094.094,0,0,1,.012-.1.1.1,0,0,1,.068-.175c.1.006.211.008.315.008l.026-.028c.054-.056.1-.117.151-.177a2.279,2.279,0,0,1,.257-.285,1.692,1.692,0,0,1,1.565-.255.1.1,0,0,1,.038.175,3.237,3.237,0,0,1-1.678.743,4.453,4.453,0,0,1,1.326.752,1.386,1.386,0,0,1,.589.886.519.519,0,0,1-.37.6.619.619,0,0,1-.484-.207,13.6,13.6,0,0,1-1.415-1.431l.02.066a.1.1,0,0,1,.072.09.114.114,0,0,1-.028.074,4.828,4.828,0,0,1,.1.641.12.12,0,0,1,.02.062.087.087,0,0,1-.012.044c.01.133.016.265.016.394l.424.05a.1.1,0,0,1,.04.185l-.486.289c-.008.08-.016.163-.026.241a2.867,2.867,0,0,0,.878-.183.1.1,0,0,1,.119.034.1.1,0,0,1-.01.125l-.609.659a4.34,4.34,0,0,0,1.067-.285.1.1,0,0,1,.119.149l-.464.651c.344-.133.681-.279,1.009-.44a.1.1,0,0,1,.117.018.106.106,0,0,1,.01.123l-.458.743.788-.583a.1.1,0,0,1,.139.02.1.1,0,0,1-.02.139l-1.2.89a.1.1,0,0,1-.145-.131l.555-.9q-.5.229-1.023.42a.1.1,0,0,1-.115-.034.094.094,0,0,1,0-.115l.464-.657a4.6,4.6,0,0,1-1.081.213.086.086,0,0,1-.1-.054.094.094,0,0,1,.016-.109l.535-.579a3.3,3.3,0,0,1-.615.084c-.01.072-.022.139-.034.2a15.169,15.169,0,0,1-.989,2.99.1.1,0,0,1-.092.06A.118.118,0,0,1,207.647,280.571Zm.936-6.018a13.765,13.765,0,0,0,1.642,1.712.478.478,0,0,0,.33.161c.139-.02.217-.211.2-.376a1.2,1.2,0,0,0-.516-.76,4.294,4.294,0,0,0-1.557-.81C208.648,274.5,208.618,274.528,208.584,274.553Zm-.524,1.71.617.07c0-.094,0-.193-.01-.3A2.5,2.5,0,0,0,208.059,276.263Zm-.253-.665.838.187a4.914,4.914,0,0,0-.086-.494A7.369,7.369,0,0,0,207.806,275.6Zm.117-.754a4.589,4.589,0,0,0,.557.155c-.032-.1-.068-.211-.111-.318A1.913,1.913,0,0,1,207.923,274.844Zm1.32-.975a2.446,2.446,0,0,0-.235.261c-.018.026-.034.042-.05.062a3.08,3.08,0,0,0,1.467-.575A1.427,1.427,0,0,0,209.243,273.869Z" transform="translate(-207.41 -273.389)"/></g></g><g transform="translate(43.319 129.586)"><g transform="translate(0.206)"><path class="m" d="M208.074,278.82c-.07-.129-.107-.215-.107-.215l.014-8.231-4.819.884s.627,4.779.723,7.284A15.6,15.6,0,0,1,208.074,278.82Z" transform="translate(-203.163 -270.374)"/></g><g transform="translate(0 5.749)"><path class="q" d="M213.674,279.173c-4.453-.563-5.488-3.434-5.488-3.434l.155-2.5-4.795.4c.078,1.037.468,2.636.42,3.123-.165,1.692-1.493,5.468-.6,6.476,0,0,12.557.7,13.827.468S218.125,279.738,213.674,279.173Z" transform="translate(-203.06 -273.235)"/></g><g transform="translate(0.003 11.641)"><path class="c" d="M213.676,276.213c-.1-.01-.2-.032-.3-.046a9.08,9.08,0,0,0-.468,2.982l-9.848-.076a1.821,1.821,0,0,0,.309,1.2s12.555.7,13.825.466S218.129,276.778,213.676,276.213Z" transform="translate(-203.062 -276.167)"/></g><g transform="translate(1.35 10.26)"><path class="c" d="M206.37,277.1a1.334,1.334,0,1,0-1.587,1.023A1.334,1.334,0,0,0,206.37,277.1Z" transform="translate(-203.732 -275.48)"/></g><g transform="translate(3.843 6.058)"><path class="c" d="M205.211,280.571a.1.1,0,0,1-.054-.133,15.055,15.055,0,0,0,.979-2.948c.01-.054.018-.108.028-.167a3.012,3.012,0,0,1-.464-.046.1.1,0,0,1-.032-.185l.559-.332c.006-.074.01-.149.012-.227l-.924-.107a.1.1,0,0,1-.084-.076.106.106,0,0,1,.038-.107,2.834,2.834,0,0,1,.643-.322l-.86-.195a.1.1,0,0,1-.076-.08.1.1,0,0,1,.052-.1,8.452,8.452,0,0,1,.852-.378,3.207,3.207,0,0,1-.81-.293.1.1,0,0,1,.048-.191h0a1.56,1.56,0,0,0,.731-.183l-.008-.014a.1.1,0,0,1,.012-.1.1.1,0,0,1-.04-.092.1.1,0,0,1,.109-.082c.1.006.213.008.313.008l.028-.028c.052-.056.1-.117.151-.177a2.146,2.146,0,0,1,.259-.285,1.687,1.687,0,0,1,1.563-.255.1.1,0,0,1,.07.074.106.106,0,0,1-.032.1,3.237,3.237,0,0,1-1.678.743,4.454,4.454,0,0,1,1.326.752,1.382,1.382,0,0,1,.587.886.516.516,0,0,1-.368.6.633.633,0,0,1-.486-.207,14.18,14.18,0,0,1-1.413-1.431l.022.066a.1.1,0,0,1,.068.09.1.1,0,0,1-.026.074,5.589,5.589,0,0,1,.1.641.1.1,0,0,1,.018.062.11.11,0,0,1-.01.044c.008.133.014.265.016.394l.424.05a.1.1,0,0,1,.084.078.1.1,0,0,1-.044.107l-.486.289c-.008.08-.016.163-.026.241a2.867,2.867,0,0,0,.878-.183.1.1,0,0,1,.119.034.106.106,0,0,1-.01.125l-.609.659a4.388,4.388,0,0,0,1.067-.285.1.1,0,0,1,.117.028.106.106,0,0,1,0,.121l-.464.651c.344-.133.681-.279,1.007-.44a.1.1,0,0,1,.129.141l-.462.743.792-.583a.1.1,0,0,1,.139.02.1.1,0,0,1-.02.139l-1.2.89a.1.1,0,0,1-.145-.131l.555-.9c-.334.153-.677.293-1.025.42a.093.093,0,0,1-.113-.034.1.1,0,0,1,0-.115l.466-.657a4.621,4.621,0,0,1-1.081.213.086.086,0,0,1-.1-.054.091.091,0,0,1,.016-.109l.535-.579a3.324,3.324,0,0,1-.615.084c-.01.072-.022.139-.034.2a15.043,15.043,0,0,1-.989,2.99.1.1,0,0,1-.094.06A.112.112,0,0,1,205.211,280.571Zm.936-6.018a13.621,13.621,0,0,0,1.642,1.712.474.474,0,0,0,.328.161c.141-.02.217-.211.2-.376a1.2,1.2,0,0,0-.516-.76,4.278,4.278,0,0,0-1.557-.81Zm-.524,1.71.615.07c0-.094,0-.193-.01-.3A2.522,2.522,0,0,0,205.623,276.263Zm-.253-.665.836.187a4.391,4.391,0,0,0-.084-.494A7.368,7.368,0,0,0,205.369,275.6Zm.117-.754a4.522,4.522,0,0,0,.559.155c-.034-.1-.072-.211-.113-.318A1.981,1.981,0,0,1,205.486,274.844Zm1.32-.975a2.444,2.444,0,0,0-.235.261c-.018.026-.034.042-.05.062a3.081,3.081,0,0,0,1.467-.575A1.416,1.416,0,0,0,206.806,273.869Z" transform="translate(-204.972 -273.389)"/></g></g><g transform="translate(32.184 62.444)"><path class="ag" d="M197.519,241.659l6.79,6.987a2.1,2.1,0,0,0,1.4.629l18.015.39,1.708-1.76-17.348-4-6.191-6.941Z" transform="translate(-197.519 -236.961)"/></g><g transform="translate(12.222 85.396)"><path class="o" d="M187.585,255.109s.713,10.106,6.123,11.243,23.625,2.136,23.625,2.136-1.706.141,1.567,29.891l11.386-.145s3.131-39.142,1.425-40.706-24.8-9.145-24.8-9.145Z" transform="translate(-187.585 -248.383)"/></g><g transform="translate(25.496 89.025)"><path class="h" d="M220.059,296.374h0a.107.107,0,0,1-.1-.11c.012-.342,1.276-34.332.995-37.561-.042-.482-.81-1.326-4.232-2.6a92.993,92.993,0,0,0-9.173-2.729c-6.575-1.67-13.2-2.958-13.267-2.972a.1.1,0,0,1-.084-.125.108.108,0,0,1,.125-.084c.066.014,6.7,1.3,13.279,2.974a93.476,93.476,0,0,1,9.2,2.735c2.872,1.071,4.3,1.983,4.371,2.785.283,3.243-.985,37.245-.995,37.589A.107.107,0,0,1,220.059,296.374Z" transform="translate(-194.191 -250.189)"/></g><g transform="translate(15.391 91.303)"><path class="h" d="M220.439,295.66a.112.112,0,0,1-.107-.1c-1.676-15.224-1.843-33.472-1.849-34.418-.173-.107-1.284-.444-7.459-1.451-3.993-.651-8.572-1.334-11.524-1.754-2.835-.406-4.66-.719-6.125-1.618-1.4-.862-2.472-2.245-4.2-4.835a.106.106,0,0,1,.028-.147.109.109,0,0,1,.151.028c3.344,5.016,4.1,5.49,10.172,6.358,2.908.416,7.734,1.135,11.781,1.8,2.2.36,3.937.665,5.156.9,2.226.44,2.226.555,2.226.677,0,.177.139,18.883,1.851,34.43a.108.108,0,0,1-.094.121Z" transform="translate(-189.162 -251.323)"/></g><g transform="translate(20.764 90.52)"><path class="h" d="M193.97,257.765l-.03-.006a.1.1,0,0,1-.07-.133,6.507,6.507,0,0,0-2-6.507.108.108,0,0,1,.145-.161,6.657,6.657,0,0,1,2.249,4.463,6.4,6.4,0,0,1-.191,2.267A.109.109,0,0,1,193.97,257.765Z" transform="translate(-191.836 -250.933)"/></g><g transform="translate(7.74 51.643)"><path class="ah" d="M196.325,231.586s-7.341,3.436-8.623,6.211-2.347,14.838-2.347,14.838l1.282.215s.637,16.439,2.882,21.455c0,0,9.394.641,19.64-8.966,0,0-3.2-3.31-3.2-4.8v-5.872s3.521-3.1,2.882-6.832l1.174,1.387,6.191-5.55s-8.86-10.248-9.714-10.568-5.231-.961-5.231-.961Z" transform="translate(-185.355 -231.586)"/></g><g transform="translate(8.73 72.799)"><path class="ag" d="M185.855,242.114l6.368.535.426,7.26,15.32,11.635-.963,2.082s-19.373-8.381-20.334-12.33A41.854,41.854,0,0,1,185.855,242.114Z" transform="translate(-185.847 -242.114)"/></g><g transform="translate(7.635 64.972)"><path class="h" d="M193.876,246.687l-.008,0-8.468-.639a.1.1,0,0,1-.1-.113.107.107,0,0,1,.113-.1l8.359.631.281-8.144a.1.1,0,1,1,.209.006l-.283,8.257a.106.106,0,0,1-.036.074A.1.1,0,0,1,193.876,246.687Z" transform="translate(-185.303 -238.219)"/></g><g transform="translate(29.037 91.72)"><path class="ag" d="M196.914,251.984a55.675,55.675,0,0,1,6.03-.426c.8.159,5.072,3.364,4.7,3.521a1.55,1.55,0,0,1-.9,0s.8.482.585.7-2.669-.587-2.669-.587,1.975,1.441,1.656,1.495a45.443,45.443,0,0,1-4.485-1.869s-3.575,1.228-5.87-1.015Z" transform="translate(-195.953 -251.53)"/></g><g transform="translate(18.673 45.416)"><path class="ag" d="M196.879,230.482s-.46,4.007.022,4.809a5.338,5.338,0,0,1,.227.484,1.564,1.564,0,0,1-1.222,2.158c-1.829.257-4.162.436-5.012-2.379-.577-1.909,1.537-7.067,1.537-7.067Z" transform="translate(-190.795 -228.487)"/></g><g transform="translate(14.424 31.705)"><g transform="translate(0.863 0.386)"><path class="ag" d="M189.748,230.875a7.984,7.984,0,0,1-.506-4.564c.936-5.152,6.471-4.979,10.463-3.7a5.021,5.021,0,0,1,3.352,3.955c.117.794.04,1.606.111,2.405a3.742,3.742,0,0,0,.386,1.429c.139.269.1.285,1.153.977.2.129-.472,1.274-.7,1.24-.092-.012-.082.338-.07.571a8.088,8.088,0,0,1-.307,2.914c-1.105,3.3-4.15,2.06-6.7.768C194.057,235.416,190.99,233.847,189.748,230.875Z" transform="translate(-189.111 -221.856)"/></g><g transform="translate(11.926 5.828)"><path class="ai" d="M196.594,224.6a2.543,2.543,0,0,0-1.694.318.648.648,0,0,0-.255.237.237.237,0,0,0,.064.3,1.476,1.476,0,0,1,.878-.165c.195,0,.39.008.585.014a1.3,1.3,0,0,0,.6-.086c.179-.088.291-.305.179-.458A.538.538,0,0,0,196.594,224.6Z" transform="translate(-194.616 -224.564)"/></g><g transform="translate(5.908 11.549)"><path class="n" d="M199.241,232.493a4.914,4.914,0,0,1-3.275-.512l-.056.969a16.3,16.3,0,0,1-4.288-4.079l2.882-1.459A6.231,6.231,0,0,0,199.241,232.493Z" transform="translate(-191.621 -227.411)"/></g><g transform="translate(12.95 7.049)"><path class="aj" d="M195.126,226.2c-.016-.559.207-1.019.5-1.029s.555.436.573.993-.207,1.019-.5,1.029S195.146,226.758,195.126,226.2Z" transform="translate(-195.126 -225.172)"/></g><g transform="translate(12.093 9.663)"><path class="n" d="M194.7,227.074c-.008.344.53.631,1.2.641s1.214-.257,1.22-.6-.53-.629-1.2-.641S194.7,226.73,194.7,227.074Z" transform="translate(-194.699 -226.473)"/></g><path class="ai" d="M190.126,241.182a.666.666,0,0,1-.267-.731,3.17,3.17,0,0,1,.334-.764,5.435,5.435,0,0,0-.151-4.2,17.322,17.322,0,0,1-1.328-4.091,11.151,11.151,0,0,1,.123-2.52c.1-.8.2-1.612.328-2.415a7.24,7.24,0,0,1,.4-1.664,5,5,0,0,1,2.892-2.648,9.2,9.2,0,0,1,3.975-.448,16.076,16.076,0,0,1,4.644,1.067.847.847,0,0,1,.275.155.828.828,0,0,1,.185.567,10.731,10.731,0,0,1-2.427,7.375,9.773,9.773,0,0,0-.975,1.242,7.542,7.542,0,0,0-.737,2.548,13.263,13.263,0,0,1-2.669,6.41,1.63,1.63,0,0,1-1.049.673,2,2,0,0,1-.713-.139,8.049,8.049,0,0,0-2.363-.348A.987.987,0,0,1,190.126,241.182Z" transform="translate(-188.681 -221.664)"/><g transform="translate(8.22 8.436)"><path class="ag" d="M192.828,227.206a1.42,1.42,0,0,0,.255.422,1.13,1.13,0,0,0,1.123.456.961.961,0,0,0,.561-.559c.107-.251.241-.311.259-.583a.885.885,0,0,0,.01-.281,1.709,1.709,0,0,0-.249-.277,1.835,1.835,0,0,0-.766-.492,1,1,0,0,0-1.194,1.314Z" transform="translate(-192.772 -225.862)"/></g><g transform="translate(13.446 12.401)"><path class="aj" d="M195.426,228.112a.051.051,0,0,1-.016-.1,20.916,20.916,0,0,1,2.224-.177.052.052,0,0,1,0,.1,21.2,21.2,0,0,0-2.2.171Z" transform="translate(-195.373 -227.835)"/></g></g><g class="ak" transform="translate(16.922 71.786)"><path class="ah" d="M189.924,242.09a11.115,11.115,0,0,0,7.312-.48S193.5,246.093,189.924,242.09Z" transform="translate(-189.924 -241.61)"/></g><g transform="translate(2.152 31.679)"><path class="ai" d="M183.557,251.835a3.241,3.241,0,0,0,.938,3.141,5.882,5.882,0,0,0,3.064,1.461c2.174.424,4.738-.038,5.988-1.869.675-.987.9-2.277,1.776-3.095a12.421,12.421,0,0,1,2.661-1.4,7.877,7.877,0,0,0,3.062-3.906,22.336,22.336,0,0,0,1.009-14.838,15.742,15.742,0,0,1-.717-3.026,3.637,3.637,0,0,1,.884-2.884,5.184,5.184,0,0,1,1.575-.948l3.394-1.531a13.062,13.062,0,0,0-7.035-1.18,7.18,7.18,0,0,0-5.6,4.051c-.958,2.325-.408,5.273-2.076,7.154-1.429,1.616-4.009,1.815-5.407,3.454a3.784,3.784,0,0,0-.772,3.338,3.654,3.654,0,0,1,.265,1.431c-.149,1-1.35,1.391-2.206,1.933a4.13,4.13,0,0,0-1.1,5.667,3.3,3.3,0,0,1,.77,1.314A4.193,4.193,0,0,1,183.557,251.835Z" transform="translate(-182.574 -221.651)"/></g><g transform="translate(41.614 65.434)"><path class="z" d="M206.554,238.449l-1.21,1.778a6.546,6.546,0,0,0-1.425,1.282c-.283.5-1.708,3.842-1.708,3.842a1.486,1.486,0,0,0,1.425-.5,10.712,10.712,0,0,0,1.069-1.425l1.706-.366,1.788.386.559-2.013.571-.924Z" transform="translate(-202.212 -238.449)"/></g><g transform="translate(58.178 72.697)"><path class="ag" d="M210.455,244.622l1.069-2.245a4.538,4.538,0,0,1,2.775-.159,25.831,25.831,0,0,1,3.79,1.817,1.082,1.082,0,0,1-1.176.372,13.023,13.023,0,0,1-1.493-.372l1.654,1.224a10.529,10.529,0,0,1,2.188.056c.532.159-.478.691-.478.691l.533.269a5.188,5.188,0,0,1-1.817.854,4.181,4.181,0,0,1-2.241-.052l1.708.745s.319.533-1.334.161S210.455,244.622,210.455,244.622Z" transform="translate(-210.455 -242.064)"/></g><g transform="translate(0.748 32.107)"><path class="ai" d="M187.771,257.172q-.259,0-.524-.024c-2.15-.191-4.421-1.983-4.375-4.347a7.1,7.1,0,0,1,.181-1.294,4.739,4.739,0,0,0-.488-3.691,7.8,7.8,0,0,1-.657-2.009,4.013,4.013,0,0,1,1.559-3.669,8.534,8.534,0,0,1,.727-.46,2.314,2.314,0,0,0,1.443-3.066,5.5,5.5,0,0,1-.115-1.282c.117-1.774,1.887-2.888,2.932-3.392.317-.155.651-.3.971-.44a8.3,8.3,0,0,0,2.948-1.815,8.093,8.093,0,0,0,1.5-3.193,16.107,16.107,0,0,1,.637-1.827,8.256,8.256,0,0,1,7.33-4.8h0a.108.108,0,0,1,.106.109.11.11,0,0,1-.106.106,8.034,8.034,0,0,0-7.138,4.67,16.623,16.623,0,0,0-.629,1.8,6.322,6.322,0,0,1-4.567,5.142c-.32.139-.649.283-.963.436-1,.484-2.7,1.547-2.813,3.213a5.487,5.487,0,0,0,.11,1.234,3.273,3.273,0,0,1-.066,1.965,3.314,3.314,0,0,1-1.477,1.32,8.019,8.019,0,0,0-.711.448,3.8,3.8,0,0,0-1.473,3.468,7.7,7.7,0,0,0,.641,1.953,4.921,4.921,0,0,1,.5,3.818,7.189,7.189,0,0,0-.175,1.256c-.042,2.245,2.126,3.949,4.18,4.129.173.016.34.022.506.022a8.192,8.192,0,0,0,5.114-2.158l-1.794.283a.108.108,0,0,1-.123-.088.105.105,0,0,1,.09-.121l2.154-.34a.1.1,0,0,1,.113.058.1.1,0,0,1-.024.123A8.635,8.635,0,0,1,187.771,257.172Z" transform="translate(-181.875 -221.864)"/></g><g transform="translate(0 24.972)"><g transform="translate(1.082 4.247)"><path class="ab" d="M182.382,220.451l5.813,2.819a.239.239,0,0,1,.111.32h0a.241.241,0,0,1-.319.111l-5.811-2.821a.241.241,0,0,1-.111-.317h0A.237.237,0,0,1,182.382,220.451Z" transform="translate(-182.041 -220.427)"/></g><g transform="translate(0 10.804)"><path class="ab" d="M181.746,223.69l6.46.123a.238.238,0,0,1,.233.241h0a.238.238,0,0,1-.243.233l-6.458-.121a.24.24,0,0,1-.235-.243h0A.242.242,0,0,1,181.746,223.69Z" transform="translate(-181.503 -223.69)"/></g><g transform="translate(4.311)"><path class="ab" d="M184.044,218.373l4.807,4.32a.24.24,0,0,1,.018.336h0a.24.24,0,0,1-.338.016l-4.8-4.316a.24.24,0,0,1-.018-.336h0A.238.238,0,0,1,184.044,218.373Z" transform="translate(-183.648 -218.313)"/></g></g></g><g transform="translate(805.966 190.763)"><rect class="al" width="7.893" height="24.204" rx="3.946" transform="translate(8.156 5.671)"/><rect class="al" width="7.893" height="24.204" rx="3.946" transform="translate(24.204 13.827) rotate(90)"/><rect class="al" width="3.698" height="11.342" rx="1.849" transform="translate(26.191)"/><rect class="al" width="3.698" height="11.342" rx="1.849" transform="translate(33.711 3.822) rotate(90)"/></g></g></svg>